<svg width="51" height="71" viewBox="0 0 51 71" fill="none" xmlns="http://www.w3.org/2000/svg">
<path fill-rule="evenodd" clip-rule="evenodd" d="M38.7386 14.8042C38.7386 7.63652 32.928 1.82596 25.7604 1.82596C18.5928 1.82596 12.7822 7.63648 12.7822 14.8041L11.0334 14.8042C11.0334 6.67067 17.6269 0.0771484 25.7604 0.0771484C33.8939 0.0771484 40.4874 6.67064 40.4874 14.8041V18.7536H47.1272C49.0589 18.7536 50.6248 20.3195 50.6248 22.2512V67.1036C50.6248 69.0353 49.0589 70.6012 47.1272 70.6012H4.39363C2.46194 70.6012 0.895996 69.0353 0.895996 67.1036V22.2512C0.895996 20.3195 2.46194 18.7536 4.39362 18.7536H11.0334V14.8042H12.7875V16.553H12.7822V18.7536H38.7386L38.7386 14.8042ZM38.7387 22.2512H12.7822V30.0902H12.7875V31.839H11.0334V22.2512H4.39362V67.1036H47.1272L47.1272 22.2512H40.4874V31.839H38.7389L38.7387 22.2512Z" fill="#F4F4F4"/>
</svg>
