<svg width="32" height="33" viewBox="0 0 32 33" fill="none" xmlns="http://www.w3.org/2000/svg">
<g clip-path="url(#clip0)">
<path d="M1.99998 2.78221C-0.514686 5.39421 -1.9148e-05 8.16888 -1.9148e-05 16.5982C-1.9148e-05 23.5982 -1.22135 30.6155 5.17065 32.2675C7.16665 32.7809 24.852 32.7809 26.8453 32.2649C29.5066 31.5782 31.672 29.4195 31.968 25.6555C32.0093 25.1302 32.0093 8.07555 31.9666 7.53955C31.652 3.53021 29.184 1.21955 25.932 0.751546C25.1866 0.643546 25.0373 0.611546 21.2133 0.60488C7.64931 0.611546 4.67598 0.00754607 1.99998 2.78221Z" fill="url(#paint0_linear)"/>
<path d="M15.9974 4.79046C11.156 4.79046 6.5587 4.35979 4.8027 8.86646C4.07737 10.7278 4.1827 13.1451 4.1827 16.6065C4.1827 19.6438 4.08537 22.4985 4.8027 24.3451C6.5547 28.8545 11.1894 28.4225 15.9947 28.4225C20.6307 28.4225 25.4107 28.9051 27.188 24.3451C27.9147 22.4651 27.808 20.0838 27.808 16.6065C27.808 11.9905 28.0627 9.01046 25.824 6.77312C23.5574 4.50646 20.492 4.79046 15.992 4.79046H15.9974ZM14.9387 6.91979C25.0374 6.90379 26.3227 5.78112 25.6134 21.3771C25.3614 26.8931 21.1614 26.2878 15.9987 26.2878C6.58537 26.2878 6.3147 26.0185 6.3147 16.6011C6.3147 7.07446 7.06137 6.92512 14.9387 6.91712V6.91979ZM22.304 8.88112C21.5214 8.88112 20.8867 9.51579 20.8867 10.2985C20.8867 11.0811 21.5214 11.7158 22.304 11.7158C23.0867 11.7158 23.7214 11.0811 23.7214 10.2985C23.7214 9.51579 23.0867 8.88112 22.304 8.88112ZM15.9974 10.5385C12.6467 10.5385 9.9307 13.2558 9.9307 16.6065C9.9307 19.9571 12.6467 22.6731 15.9974 22.6731C19.348 22.6731 22.0627 19.9571 22.0627 16.6065C22.0627 13.2558 19.348 10.5385 15.9974 10.5385ZM15.9974 12.6678C21.204 12.6678 21.2107 20.5451 15.9974 20.5451C10.792 20.5451 10.784 12.6678 15.9974 12.6678Z" fill="white"/>
</g>
<defs>
<linearGradient id="paint0_linear" x1="2.06134" y1="30.561" x2="31.802" y2="4.82085" gradientUnits="userSpaceOnUse">
<stop stop-color="#FFDD55"/>
<stop offset="0.5" stop-color="#FF543E"/>
<stop offset="1" stop-color="#C837AB"/>
</linearGradient>
<clipPath id="clip0">
<rect width="32" height="32" fill="white" transform="translate(0 0.60498)"/>
</clipPath>
</defs>
</svg>
