<svg width="65" height="51" viewBox="0 0 65 51" fill="none" xmlns="http://www.w3.org/2000/svg">
<g clip-path="url(#clip0)">
<path d="M56.5414 17.0163H52.8499V15.1027C52.8499 13.5796 51.6065 12.3299 50.091 12.3299C48.5756 12.3299 47.3321 13.5796 47.3321 15.1027V17.0163H43.6406V15.1027C43.6406 11.5098 46.555 8.61987 50.091 8.61987C53.6659 8.61987 56.5414 11.5489 56.5414 15.1027V17.0163Z" fill="#FFA400"/>
<path d="M58.0569 17.0161H42.1252C41.4257 17.0161 40.8817 17.5629 40.8817 18.2658V30.0989C40.8817 30.8018 41.4257 31.3486 42.1252 31.3486H58.0569C58.7563 31.3486 59.3003 30.8018 59.3003 30.0989V18.2658C59.2615 17.5629 58.7174 17.0161 58.0569 17.0161ZM50.8682 24.7877V26.3888C50.8682 26.8184 50.5185 27.209 50.0522 27.209C49.6247 27.209 49.2361 26.8575 49.2361 26.3888V24.7877C48.731 24.5143 48.4201 23.9676 48.4201 23.3427C48.4201 22.4445 49.1584 21.7025 50.0522 21.7025C50.9459 21.7025 51.6842 22.4445 51.6842 23.3427C51.723 23.9676 51.3733 24.5143 50.8682 24.7877Z" fill="#0ABBB5"/>
<path d="M40.4932 15.259H36.6462C36.0245 15.259 35.5194 14.7513 35.5194 14.1264C35.5194 13.5016 36.0245 12.9939 36.6462 12.9939H40.4932C41.1149 12.9939 41.62 13.5016 41.62 14.1264C41.62 14.7513 41.1149 15.259 40.4932 15.259Z" fill="#FFA400"/>
<path d="M43.2132 9.16668C42.9801 9.16668 42.7081 9.08857 42.5138 8.89331L39.4829 6.39391C39.0166 6.00338 38.9388 5.30043 39.3274 4.79274C39.716 4.3241 40.4154 4.24599 40.9206 4.63652L43.9515 7.13592C44.4178 7.52645 44.4955 8.22941 44.1069 8.7371C43.8349 9.01047 43.5241 9.16668 43.2132 9.16668Z" fill="#FFA400"/>
<path d="M50.091 6.51096C49.4693 6.51096 48.9641 6.00327 48.9641 5.37842V1.47311C48.9641 0.848266 49.4693 0.340576 50.091 0.340576C50.7127 0.340576 51.2179 0.848266 51.2179 1.47311V5.37842C51.2179 6.00327 50.7127 6.51096 50.091 6.51096Z" fill="#FFA400"/>
<path d="M56.93 9.16668C56.6192 9.16668 56.2694 9.01047 56.0751 8.7371C55.6866 8.26846 55.7643 7.52645 56.2306 7.13592L59.2615 4.63652C59.7278 4.24599 60.4661 4.3241 60.8547 4.79274C61.2432 5.26137 61.1655 6.00338 60.6992 6.39391L57.6683 8.89331C57.4352 9.08857 57.202 9.16668 56.93 9.16668Z" fill="#FFA400"/>
<path d="M63.497 15.259H59.6112C58.9895 15.259 58.4843 14.7513 58.4843 14.1264C58.4843 13.5016 58.9895 12.9939 59.6112 12.9939H63.497C64.1187 12.9939 64.6239 13.5016 64.6239 14.1264C64.6239 14.7513 64.1187 15.259 63.497 15.259Z" fill="#FFA400"/>
<path d="M0.780491 31.1925V18.5783H3.8114V28.5368H8.66862V31.1925H0.780491ZM18.6939 26.8576V27.209V27.5605H12.2824C12.3213 27.7948 12.399 28.0292 12.5155 28.2244C12.6321 28.4197 12.7876 28.615 12.9818 28.7321C13.1761 28.8883 13.4093 29.0055 13.6424 29.0836C13.8756 29.1617 14.1476 29.2007 14.3807 29.2007C14.847 29.2007 15.2356 29.1226 15.5465 28.9274C15.8573 28.7712 16.1293 28.5368 16.3236 28.2635L18.3442 29.5522C17.9168 30.1771 17.3728 30.6067 16.7122 30.9581C16.0516 31.2706 15.2356 31.4658 14.3419 31.4658C13.6813 31.4658 13.0596 31.3487 12.4767 31.1534C11.8938 30.9581 11.3887 30.6457 10.9224 30.2552C10.4949 29.8647 10.1452 29.357 9.87322 28.7712C9.60121 28.1854 9.48464 27.5215 9.48464 26.7795C9.48464 26.0374 9.60121 25.4126 9.87322 24.8268C10.1064 24.241 10.4561 23.7333 10.8835 23.3428C11.311 22.9523 11.8161 22.6008 12.399 22.4055C12.9818 22.1712 13.6036 22.054 14.2641 22.054C14.9247 22.054 15.5076 22.1712 16.0516 22.3665C16.5956 22.6008 17.0619 22.9132 17.4505 23.3037C17.8391 23.7333 18.1499 24.241 18.3442 24.8268C18.5774 25.4517 18.6939 26.1156 18.6939 26.8576ZM16.0127 25.7641C16.0127 25.2954 15.8573 24.9049 15.5853 24.5534C15.3133 24.202 14.847 24.0457 14.2641 24.0457C13.9921 24.0457 13.7201 24.0848 13.487 24.1629C13.2538 24.241 13.0596 24.3582 12.8653 24.5144C12.671 24.6706 12.5544 24.8659 12.4378 25.0611C12.3213 25.2564 12.2824 25.4907 12.2435 25.725H16.0127V25.7641ZM23.3569 24.5144V27.912C23.3569 28.3416 23.4346 28.654 23.59 28.8493C23.7454 29.0445 24.0175 29.1617 24.4449 29.1617C24.6003 29.1617 24.7558 29.1617 24.9112 29.1226C25.0666 29.0836 25.222 29.0445 25.2998 29.0055L25.3386 31.1534C25.1443 31.2315 24.8723 31.2706 24.5615 31.3487C24.2506 31.3877 23.9397 31.4268 23.6289 31.4268C23.046 31.4268 22.5409 31.3487 22.1523 31.1925C21.7637 31.0362 21.414 30.841 21.1808 30.5676C20.9477 30.2942 20.7534 29.9428 20.6757 29.5522C20.598 29.1617 20.5203 28.7321 20.5203 28.2635V24.5144H19.0825V22.3274H20.4814V19.9842H23.3569V22.3274H25.4163V24.5144H23.3569ZM28.0975 18.344C27.2427 18.344 26.5432 18.9688 26.5432 19.789C26.5432 20.6481 27.1261 21.1949 27.9809 21.1949C28.0587 21.1949 28.1364 21.1949 28.1752 21.1558C28.0198 21.7807 27.4369 22.2493 26.8541 22.3274H26.7375V23.6943H26.8929C27.5924 23.6162 28.253 23.3037 28.7581 22.8351C29.4187 22.2102 29.7684 21.273 29.7684 20.1795C29.7684 19.1251 29.069 18.344 28.0975 18.344ZM34.8199 24.944C34.5868 24.7096 34.3148 24.5144 34.0039 24.3582C33.693 24.202 33.3433 24.1238 32.9936 24.1238C32.7216 24.1238 32.4885 24.1629 32.2553 24.2801C32.0222 24.3972 31.9056 24.5534 31.9056 24.8268C31.9056 25.0611 32.0222 25.2564 32.2942 25.3735C32.5662 25.4907 32.9547 25.6079 33.5376 25.725C33.8873 25.8031 34.1982 25.8812 34.5479 26.0374C34.8976 26.1937 35.1696 26.3499 35.4416 26.5451C35.7137 26.7404 35.9468 27.0138 36.1022 27.3262C36.2577 27.6386 36.3354 27.9901 36.3354 28.4197C36.3354 28.9664 36.2188 29.4351 35.9857 29.8256C35.7525 30.2161 35.4805 30.5286 35.0919 30.7629C34.7422 30.9972 34.3148 31.1534 33.8873 31.2706C33.421 31.3877 32.9936 31.4268 32.5273 31.4268C31.789 31.4268 31.0896 31.3096 30.429 31.0753C29.7296 30.841 29.1467 30.4895 28.7192 30.0599L30.3513 28.3416C30.6233 28.615 30.9341 28.8493 31.3227 29.0445C31.7113 29.2398 32.0999 29.3179 32.5273 29.3179C32.7605 29.3179 32.9936 29.2789 33.2268 29.1617C33.4599 29.0445 33.5765 28.8493 33.5765 28.5759C33.5765 28.3025 33.421 28.1073 33.149 27.951C32.877 27.8339 32.4107 27.6777 31.8279 27.5605C31.517 27.4824 31.2061 27.4043 30.8953 27.2871C30.5844 27.17 30.3124 27.0138 30.0793 26.8185C29.8461 26.6232 29.6518 26.3499 29.4964 26.0765C29.341 25.7641 29.2633 25.4126 29.2633 25.0221C29.2633 24.4753 29.3798 24.0457 29.613 23.6552C29.8461 23.2647 30.1181 22.9913 30.4678 22.757C30.8176 22.5227 31.2061 22.3274 31.6336 22.2493C32.061 22.1321 32.4885 22.0931 32.9159 22.0931C33.5765 22.0931 34.2371 22.2102 34.8588 22.4055C35.4805 22.6008 36.0245 22.9132 36.452 23.3428L34.8199 24.944ZM0.780491 45.7983V33.1842H9.21263V35.7617H3.69483V38.1439H8.90177V40.5652H3.69483V43.1818H9.5235V45.7983H0.780491ZM17.1785 45.7983V40.9557C17.1785 40.7214 17.1396 40.4871 17.1008 40.2528C17.0619 40.0185 16.9842 39.8232 16.9065 39.667C16.8288 39.5108 16.6733 39.3545 16.5179 39.2764C16.3625 39.1593 16.1293 39.1202 15.8573 39.1202C15.5853 39.1202 15.3522 39.1593 15.1579 39.2764C14.9636 39.3936 14.8082 39.5108 14.6527 39.706C14.5362 39.9013 14.4196 40.0966 14.3419 40.3309C14.2641 40.5652 14.2253 40.7995 14.2253 41.0338V45.8374H11.311V36.9723H14.1087V38.183H14.1476C14.2641 37.9877 14.3807 37.7924 14.575 37.6362C14.7304 37.4409 14.9636 37.2847 15.1579 37.1676C15.391 37.0504 15.6242 36.9333 15.8962 36.8552C16.1682 36.777 16.4402 36.738 16.751 36.738C17.3339 36.738 17.8391 36.8552 18.2665 37.0504C18.6939 37.2457 19.0048 37.5581 19.2768 37.8705C19.5488 38.222 19.7042 38.6125 19.8208 39.0421C19.9374 39.4717 19.9762 39.9013 19.9762 40.3699V45.8374H17.1785V45.7983ZM27.5924 39.7841C27.4369 39.5889 27.2038 39.3936 26.9318 39.2764C26.6598 39.1593 26.3489 39.0812 26.0769 39.0812C25.7661 39.0812 25.4941 39.1593 25.2609 39.2764C25.0278 39.3936 24.7946 39.5498 24.6392 39.7841C24.4837 40.0184 24.3283 40.2137 24.2117 40.4871C24.0952 40.7605 24.0563 41.0338 24.0563 41.3463C24.0563 41.6587 24.0952 41.932 24.2117 42.2054C24.2895 42.4788 24.4449 42.7131 24.6392 42.9084C24.8335 43.1036 25.0278 43.2989 25.2998 43.4161C25.5718 43.5332 25.8438 43.6113 26.1546 43.6113C26.4655 43.6113 26.7375 43.5723 27.0484 43.4551C27.3204 43.338 27.5535 43.1817 27.7478 42.9474L29.341 44.9391C28.9913 45.2906 28.4861 45.564 27.9421 45.7593C27.3592 45.9545 26.7375 46.0717 26.1158 46.0717C25.4163 46.0717 24.7558 45.9545 24.1729 45.7593C23.5512 45.564 23.046 45.2516 22.5797 44.822C22.1523 44.4314 21.8026 43.9238 21.5306 43.338C21.2585 42.7522 21.142 42.0883 21.142 41.3463C21.142 40.6042 21.2585 39.9794 21.5306 39.3936C21.8026 38.8078 22.1523 38.3001 22.5797 37.9096C23.0072 37.5191 23.5512 37.1676 24.1729 36.9723C24.7946 36.738 25.4163 36.6599 26.1158 36.6599C26.4266 36.6599 26.7375 36.6989 27.0484 36.738C27.3592 36.8161 27.6701 36.8942 27.9421 36.9723C28.2141 37.0895 28.4861 37.2066 28.7581 37.3628C28.9913 37.5191 29.2244 37.6753 29.3798 37.8705L27.5924 39.7841ZM36.0634 39.3545C35.9468 39.3155 35.7914 39.2764 35.6748 39.2764H35.3251C34.9365 39.2764 34.6256 39.3545 34.3536 39.4717C34.0816 39.6279 33.8873 39.7841 33.7319 39.9794C33.5765 40.1747 33.4599 40.409 33.3822 40.6433C33.3045 40.8776 33.2656 41.0729 33.2656 41.2681V45.7983H30.3513V36.9333H33.149V38.222H33.1879C33.421 37.7534 33.7319 37.4019 34.1593 37.1285C34.5868 36.8552 35.0531 36.6989 35.5971 36.6989H35.9468C36.0634 36.6989 36.1411 36.738 36.2188 36.738L36.0634 39.3545ZM42.9023 47.1261C42.7081 47.5947 42.5138 47.9853 42.3195 48.3758C42.0863 48.7273 41.8532 49.0397 41.5423 49.3131C41.2315 49.5865 40.8817 49.7427 40.4932 49.8989C40.1046 50.016 39.5994 50.0941 39.0554 50.0941C38.7834 50.0941 38.5114 50.0941 38.2006 50.0551C37.9285 50.016 37.6565 49.977 37.4622 49.8989L37.7731 47.4385C37.9285 47.4776 38.084 47.5166 38.2394 47.5557C38.3948 47.5947 38.5503 47.5947 38.7057 47.5947C39.172 47.5947 39.4829 47.4776 39.6771 47.2823C39.8714 47.0871 40.0657 46.7746 40.1823 46.3841L40.4543 45.6421L36.7628 36.9333H39.988L41.9698 42.635H42.0086L43.7572 36.9333H46.827L42.9023 47.1261ZM57.4352 41.3463C57.4352 41.9711 57.3574 42.5569 57.1632 43.1427C56.9689 43.7285 56.6969 44.1971 56.3471 44.6658C55.9974 45.0954 55.5311 45.4468 55.026 45.7202C54.5208 45.9936 53.8991 46.1107 53.2385 46.1107C52.6945 46.1107 52.1894 45.9936 51.6842 45.7983C51.2179 45.564 50.8293 45.2906 50.5573 44.9001H50.5185V50.1722H47.6041V37.0504H50.363V38.1439H50.4019C50.6739 37.7924 51.0625 37.48 51.5288 37.2066C51.9951 36.9333 52.5779 36.8161 53.2385 36.8161C53.8602 36.8161 54.4431 36.9333 54.9871 37.2066C55.4923 37.4409 55.9586 37.7924 56.3083 38.222C56.658 38.6516 56.93 39.1593 57.1243 39.706C57.3186 40.1356 57.4352 40.7214 57.4352 41.3463ZM54.5985 41.3463C54.5985 41.0729 54.5597 40.7995 54.482 40.5261C54.4043 40.2528 54.2488 40.0185 54.0934 39.8232C53.938 39.6279 53.7048 39.4327 53.4328 39.3155C53.1608 39.1983 52.8888 39.1202 52.5391 39.1202C52.1894 39.1202 51.9174 39.1983 51.6454 39.3155C51.3733 39.4327 51.1791 39.6279 50.9848 39.8232C50.7905 40.0185 50.6739 40.2918 50.5573 40.5652C50.4408 40.8386 50.4019 41.1119 50.4019 41.3853C50.4019 41.6587 50.4408 41.932 50.5573 42.2054C50.6739 42.4788 50.7905 42.7131 50.9848 42.9474C51.1791 43.1427 51.3733 43.338 51.6454 43.4551C51.9174 43.5723 52.1894 43.6504 52.5391 43.6504C52.8888 43.6504 53.1997 43.5723 53.4328 43.4551C53.7048 43.338 53.8991 43.1427 54.0934 42.9474C54.2488 42.7522 54.4043 42.4788 54.482 42.2054C54.5597 41.893 54.5985 41.6196 54.5985 41.3463ZM62.0592 39.1202V42.5178C62.0592 42.9474 62.137 43.2599 62.2924 43.4551C62.4478 43.6504 62.7198 43.7675 63.1473 43.7675C63.3027 43.7675 63.4581 43.7675 63.6136 43.7285C63.769 43.6894 63.9244 43.6504 64.0021 43.6113L64.041 45.7593C63.8467 45.8374 63.5747 45.8764 63.2638 45.9545C62.953 45.9936 62.6421 46.0326 62.3312 46.0326C61.7484 46.0326 61.2432 45.9545 60.8546 45.7983C60.4661 45.6421 60.1163 45.4468 59.8832 45.1735C59.6501 44.9001 59.4558 44.5486 59.3781 44.1581C59.3003 43.7675 59.2226 43.338 59.2226 42.8693V39.1202H57.8237V36.9333H59.2226V34.5901H62.0592V36.9333H64.1187V39.1202H62.0592Z" fill="#0ABBB5"/>
</g>
<defs>
<clipPath id="clip0">
<rect width="64" height="50" fill="white" transform="translate(0.682739 0.262451)"/>
</clipPath>
</defs>
</svg>
