<svg width="50" height="38" viewBox="0 0 50 38" fill="none" xmlns="http://www.w3.org/2000/svg">
<path d="M6.21402 37.4281H43.7392C46.7815 37.4248 49.2474 34.9593 49.2507 31.9166V6.4534C49.2474 3.41108 46.7815 0.945193 43.7392 0.941895H6.21402C3.1717 0.945193 0.705813 3.41108 0.702515 6.4534V31.9166C0.705813 34.9593 3.1717 37.4248 6.21402 37.4281ZM6.21402 35.7864C5.36714 35.7875 4.54335 35.509 3.8709 34.9938L15.0933 23.5153C15.3014 23.306 15.3809 23.0011 15.3021 22.7171C15.2234 22.4327 14.9984 22.2129 14.7125 22.1407C14.4263 22.0681 14.1236 22.1546 13.9191 22.3679L2.80158 33.7394C2.50108 33.1791 2.34387 32.5528 2.34424 31.9166V8.26296L21.4216 24.4167C23.4756 26.1651 26.4952 26.1644 28.5477 24.4134L47.609 8.24721V31.9166C47.6097 32.5554 47.4514 33.1835 47.1487 33.7453L35.9644 22.3657C35.646 22.0454 35.1289 22.0421 34.8064 22.3584C34.4843 22.6757 34.4784 23.1928 34.7936 23.5164L46.0775 34.9974C45.4058 35.5101 44.5842 35.7875 43.7392 35.7864H6.21402ZM6.21402 2.58362H43.7392C45.7415 2.58655 47.4118 4.11394 47.5928 6.10857L27.4861 23.1616C26.0448 24.3907 23.9245 24.3915 22.4825 23.1635L2.35963 6.12432C2.53187 4.12347 4.20547 2.58655 6.21402 2.58362Z" fill="black"/>
</svg>
