<svg width="320" height="130" viewBox="0 0 320 130" fill="none" xmlns="http://www.w3.org/2000/svg">
<mask id="path-1-inside-1" fill="white">
<path fill-rule="evenodd" clip-rule="evenodd" d="M161.005 36.1438C166.2 36.1395 171.252 33.4414 174.036 28.6184C176.821 23.7954 176.632 18.0716 174.038 13.5701C168.842 13.5744 163.791 16.2725 161.006 21.0955C158.222 25.9185 158.411 31.6423 161.005 36.1438Z"/>
</mask>
<path fill-rule="evenodd" clip-rule="evenodd" d="M161.005 36.1438C166.2 36.1395 171.252 33.4414 174.036 28.6184C176.821 23.7954 176.632 18.0716 174.038 13.5701C168.842 13.5744 163.791 16.2725 161.006 21.0955C158.222 25.9185 158.411 31.6423 161.005 36.1438Z" fill="#D4AF37" fill-opacity="0.74"/>
<path d="M161.005 36.1438L160.139 36.6431L160.427 37.1443L161.006 37.1438L161.005 36.1438ZM174.038 13.5701L174.904 13.0708L174.616 12.5696L174.037 12.5701L174.038 13.5701ZM173.17 28.1184C170.572 32.6197 165.857 35.1398 161.004 35.1438L161.006 37.1438C166.544 37.1392 171.932 34.263 174.903 29.1184L173.17 28.1184ZM173.171 14.0693C175.595 18.2743 175.769 23.6171 173.17 28.1184L174.903 29.1184C177.873 23.9738 177.669 17.8689 174.904 13.0708L173.171 14.0693ZM161.872 21.5955C164.471 17.0942 169.186 14.5741 174.039 14.5701L174.037 12.5701C168.499 12.5747 163.111 15.4509 160.14 20.5955L161.872 21.5955ZM161.871 35.6446C159.448 31.4396 159.274 26.0968 161.872 21.5955L160.14 20.5955C157.17 25.7401 157.374 31.845 160.139 36.6431L161.871 35.6446Z" fill="white" mask="url(#path-1-inside-1)"/>
<mask id="path-3-inside-2" fill="white">
<path fill-rule="evenodd" clip-rule="evenodd" d="M158.995 36.1438C153.8 36.1395 148.748 33.4414 145.963 28.6184C143.179 23.7954 143.368 18.0716 145.962 13.5701C151.157 13.5744 156.209 16.2725 158.994 21.0955C161.778 25.9185 161.589 31.6423 158.995 36.1438Z"/>
</mask>
<path fill-rule="evenodd" clip-rule="evenodd" d="M158.995 36.1438C153.8 36.1395 148.748 33.4414 145.963 28.6184C143.179 23.7954 143.368 18.0716 145.962 13.5701C151.157 13.5744 156.209 16.2725 158.994 21.0955C161.778 25.9185 161.589 31.6423 158.995 36.1438Z" fill="#D4AF37" fill-opacity="0.74"/>
<path d="M158.995 36.1438L159.861 36.6431L159.573 37.1443L158.994 37.1438L158.995 36.1438ZM145.962 13.5701L145.096 13.0708L145.384 12.5696L145.963 12.5701L145.962 13.5701ZM146.829 28.1184C149.428 32.6197 154.143 35.1398 158.996 35.1438L158.994 37.1438C153.456 37.1392 148.068 34.263 145.097 29.1184L146.829 28.1184ZM146.828 14.0693C144.405 18.2743 144.231 23.6171 146.829 28.1184L145.097 29.1184C142.127 23.9738 142.331 17.8689 145.096 13.0708L146.828 14.0693ZM158.128 21.5955C155.529 17.0942 150.814 14.5741 145.961 14.5701L145.963 12.5701C151.501 12.5747 156.889 15.4509 159.86 20.5955L158.128 21.5955ZM158.129 35.6446C160.552 31.4396 160.726 26.0968 158.128 21.5955L159.86 20.5955C162.83 25.7401 162.626 31.845 159.861 36.6431L158.129 35.6446Z" fill="white" mask="url(#path-3-inside-2)"/>
<path d="M125.142 12.7299L133.622 29.7699L142.022 12.7299H146.462V37.8899H143.302V17.2099L134.662 34.7299H132.542L123.782 16.9299V37.8899H120.622V12.7299H125.142Z" fill="#333333"/>
<path d="M177.978 12.7299L186.458 29.7699L194.858 12.7299H199.298V37.8899H196.138V17.2099L187.498 34.7299H185.378L176.618 16.9299V37.8899H173.458V12.7299H177.978Z" fill="#333333"/>
<mask id="path-7-inside-3" fill="white">
<path fill-rule="evenodd" clip-rule="evenodd" d="M183.143 24.3053C183.139 29.5008 180.441 34.5523 175.618 37.3369C170.795 40.1214 165.071 39.9323 160.57 37.3383C160.574 32.1429 163.272 27.0913 168.095 24.3068C172.918 21.5222 178.642 21.7114 183.143 24.3053Z"/>
</mask>
<path fill-rule="evenodd" clip-rule="evenodd" d="M183.143 24.3053C183.139 29.5008 180.441 34.5523 175.618 37.3369C170.795 40.1214 165.071 39.9323 160.57 37.3383C160.574 32.1429 163.272 27.0913 168.095 24.3068C172.918 21.5222 178.642 21.7114 183.143 24.3053Z" fill="#D4AF37" fill-opacity="0.74"/>
<path d="M183.143 24.3053L184.143 24.3062L184.144 23.7277L183.643 23.4389L183.143 24.3053ZM160.57 37.3383L159.57 37.3375L159.569 37.9159L160.07 38.2047L160.57 37.3383ZM182.143 24.3045C182.139 29.1576 179.619 33.872 175.118 36.4708L176.118 38.2029C181.262 35.2326 184.139 29.8439 184.143 24.3062L182.143 24.3045ZM175.118 36.4708C170.617 39.0697 165.274 38.8949 161.069 36.4719L160.07 38.2047C164.868 40.9696 170.973 41.1731 176.118 38.2029L175.118 36.4708ZM161.57 37.3391C161.574 32.486 164.094 27.7716 168.595 25.1728L167.595 23.4407C162.45 26.411 159.574 31.7997 159.57 37.3375L161.57 37.3391ZM168.595 25.1728C173.096 22.574 178.439 22.7487 182.644 25.1718L183.643 23.4389C178.844 20.674 172.74 20.4705 167.595 23.4407L168.595 25.1728Z" fill="white" mask="url(#path-7-inside-3)"/>
<mask id="path-9-inside-4" fill="white">
<path fill-rule="evenodd" clip-rule="evenodd" d="M136.857 24.3053C136.861 29.5008 139.559 34.5523 144.382 37.3369C149.205 40.1214 154.929 39.9323 159.431 37.3383C159.426 32.1429 156.728 27.0913 151.905 24.3068C147.082 21.5222 141.358 21.7114 136.857 24.3053Z"/>
</mask>
<path fill-rule="evenodd" clip-rule="evenodd" d="M136.857 24.3053C136.861 29.5008 139.559 34.5523 144.382 37.3369C149.205 40.1214 154.929 39.9323 159.431 37.3383C159.426 32.1429 156.728 27.0913 151.905 24.3068C147.082 21.5222 141.358 21.7114 136.857 24.3053Z" fill="#D4AF37" fill-opacity="0.74"/>
<path d="M136.857 24.3053L135.857 24.3062L135.856 23.7277L136.357 23.4389L136.857 24.3053ZM159.431 37.3383L160.431 37.3375L160.431 37.9159L159.93 38.2047L159.431 37.3383ZM137.857 24.3045C137.861 29.1576 140.381 33.872 144.882 36.4708L143.882 38.2029C138.738 35.2326 135.861 29.8439 135.857 24.3062L137.857 24.3045ZM144.882 36.4708C149.384 39.0697 154.726 38.8949 158.931 36.4719L159.93 38.2047C155.132 40.9696 149.027 41.1731 143.882 38.2029L144.882 36.4708ZM158.431 37.3391C158.426 32.486 155.906 27.7716 151.405 25.1728L152.405 23.4407C157.55 26.411 160.426 31.7997 160.431 37.3375L158.431 37.3391ZM151.405 25.1728C146.904 22.574 141.561 22.7487 137.356 25.1718L136.357 23.4389C141.156 20.674 147.261 20.4705 152.405 23.4407L151.405 25.1728Z" fill="white" mask="url(#path-9-inside-4)"/>
<mask id="path-11-inside-5" fill="white">
<path fill-rule="evenodd" clip-rule="evenodd" d="M160 37.8899C164.497 35.2884 167.523 30.426 167.523 24.857C167.523 19.2879 164.497 14.4255 160 11.824C155.503 14.4255 152.477 19.2879 152.477 24.857C152.477 30.426 155.503 35.2884 160 37.8899Z"/>
</mask>
<path fill-rule="evenodd" clip-rule="evenodd" d="M160 37.8899C164.497 35.2884 167.523 30.426 167.523 24.857C167.523 19.2879 164.497 14.4255 160 11.824C155.503 14.4255 152.477 19.2879 152.477 24.857C152.477 30.426 155.503 35.2884 160 37.8899Z" fill="#D4AF37" fill-opacity="0.74"/>
<path d="M160 37.8899L159.499 38.7555L160 39.0452L160.501 38.7555L160 37.8899ZM160 11.824L160.501 10.9584L160 10.6687L159.499 10.9584L160 11.824ZM166.523 24.857C166.523 30.0546 163.7 34.5942 159.499 37.0243L160.501 38.7555C165.294 35.9826 168.523 30.7974 168.523 24.857L166.523 24.857ZM159.499 12.6896C163.7 15.1197 166.523 19.6593 166.523 24.857L168.523 24.857C168.523 18.9165 165.294 13.7313 160.501 10.9584L159.499 12.6896ZM153.477 24.857C153.477 19.6593 156.3 15.1197 160.501 12.6896L159.499 10.9584C154.706 13.7313 151.477 18.9165 151.477 24.857L153.477 24.857ZM160.501 37.0243C156.3 34.5942 153.477 30.0546 153.477 24.857L151.477 24.857C151.477 30.7974 154.706 35.9826 159.499 38.7555L160.501 37.0243Z" fill="white" mask="url(#path-11-inside-5)"/>
<path d="M65.7188 69.9375C66.4896 69.9375 67.4479 69.8854 68.5938 69.7812C68.7396 70.2604 70.8021 75.4792 74.7812 85.4375C74.8021 85.4792 74.8438 85.5 74.9062 85.5C74.9896 85.5 75.0417 85.4583 75.0625 85.375C77.1042 80.5833 78.7292 76.6354 79.9375 73.5312C79.9375 73.5312 80.3542 72.2812 81.1875 69.7812C82.5208 69.8646 83.3854 69.9062 83.7812 69.9062C85.0729 69.9062 86.2396 69.8646 87.2812 69.7812C87.3438 69.9688 87.375 70.125 87.375 70.25C87.375 70.5417 87.3229 70.6875 87.2188 70.6875H87.1562C86.9271 70.6875 86.625 70.7604 86.25 70.9062C85.875 71.0312 85.5938 71.1667 85.4062 71.3125C85.1562 71.5 85.0312 72.1979 85.0312 73.4062C85.0312 73.7396 85.125 77.9688 85.3125 86.0938C85.3333 87.2812 85.4896 88.2396 85.7812 88.9688C85.8646 89.1562 86.1771 89.3229 86.7188 89.4688C87.2604 89.5938 87.6458 89.6562 87.875 89.6562C87.9583 89.6562 88 89.8021 88 90.0938C88 90.2812 87.9792 90.4375 87.9375 90.5625C85.8542 90.4583 84.6146 90.4062 84.2188 90.4062C84.1146 90.4062 82.8646 90.4583 80.4688 90.5625C80.3854 90.4792 80.3438 90.3125 80.3438 90.0625C80.3438 89.7917 80.3854 89.6562 80.4688 89.6562C80.6771 89.6562 80.9896 89.6042 81.4062 89.5C81.8438 89.3958 82.1562 89.2917 82.3438 89.1875C82.5938 89.0417 82.7188 88.5938 82.7188 87.8438V86.1875L82.3438 75.1875C82.3229 74.8542 82.2604 74.4688 82.1562 74.0312C82.0729 73.5729 81.9792 73.3438 81.875 73.3438C81.8333 73.3438 81.7812 73.4167 81.7188 73.5625L75.1875 89.1875C74.7917 90.0833 74.4062 90.5312 74.0312 90.5312C73.9688 90.5312 73.875 90.5104 73.75 90.4688L66.5938 72.2812C66.5521 74.2812 66.4896 76.5729 66.4062 79.1562C66.3229 81.7396 66.25 83.875 66.1875 85.5625C66.125 87.2292 66.0938 88.0833 66.0938 88.125C66.0938 88.5 66.1562 88.7708 66.2812 88.9375C66.4062 89.1042 66.7812 89.2708 67.4062 89.4375C68.0521 89.5833 68.4792 89.6562 68.6875 89.6562C68.7708 89.6562 68.8125 89.8125 68.8125 90.125C68.8125 90.2917 68.7917 90.4375 68.75 90.5625C66.6667 90.4583 65.4583 90.4062 65.125 90.4062C65.0833 90.4062 63.8646 90.4583 61.4688 90.5625C61.3646 90.4583 61.3125 90.3021 61.3125 90.0938C61.3125 89.8021 61.3646 89.6562 61.4688 89.6562C61.7604 89.6562 62.1875 89.5938 62.75 89.4688C63.3333 89.3229 63.7188 89.1562 63.9062 88.9688C64.2396 88.5938 64.4271 87.6875 64.4688 86.25C64.5104 84.0833 64.5521 81.9479 64.5938 79.8438C64.6562 77.7396 64.7083 76.0938 64.75 74.9062C64.7917 73.6979 64.8125 72.9271 64.8125 72.5938C64.8125 72.0729 64.7708 71.6562 64.6875 71.3438C64.625 71.1771 64.2708 71.0312 63.625 70.9062C62.9792 70.7604 62.5104 70.6875 62.2188 70.6875C62.1354 70.6875 62.0938 70.5417 62.0938 70.25C62.0938 70.0208 62.1354 69.8646 62.2188 69.7812C62.5729 69.8021 62.9583 69.8229 63.375 69.8438C63.8125 69.8646 64.2083 69.8854 64.5625 69.9062C64.9167 69.9271 65.3021 69.9375 65.7188 69.9375ZM92.0312 73.0625C91.7396 72.75 91.5938 72.375 91.5938 71.9375C91.5938 71.5 91.7396 71.1354 92.0312 70.8438C92.3438 70.5312 92.7188 70.375 93.1562 70.375C93.5938 70.375 93.9583 70.5312 94.25 70.8438C94.5625 71.1354 94.7188 71.5 94.7188 71.9375C94.7188 72.375 94.5625 72.75 94.25 73.0625C93.9583 73.3542 93.5938 73.5 93.1562 73.5C92.7188 73.5 92.3438 73.3542 92.0312 73.0625ZM94.5938 86.25C94.5938 87.4583 94.6771 88.3854 94.8438 89.0312C94.8854 89.1771 95.1562 89.3229 95.6562 89.4688C96.1562 89.5938 96.5104 89.6562 96.7188 89.6562C96.7812 89.6562 96.8229 89.7812 96.8438 90.0312C96.8646 90.2812 96.8542 90.4583 96.8125 90.5625C94.7292 90.4583 93.6146 90.4062 93.4688 90.4062C93.3229 90.4062 92.1875 90.4583 90.0625 90.5625C89.9792 90.4792 89.9375 90.3125 89.9375 90.0625C89.9375 89.7917 89.9792 89.6562 90.0625 89.6562C90.3125 89.6562 90.6771 89.5938 91.1562 89.4688C91.6562 89.3229 91.9271 89.1771 91.9688 89.0312C92.1146 88.4271 92.1875 87.6979 92.1875 86.8438V80.9375C92.1875 80.125 92.0417 79.5625 91.75 79.25C91.5417 79 91.2812 78.8333 90.9688 78.75C90.6771 78.6458 90.4271 78.5938 90.2188 78.5938C90.0312 78.5938 89.9375 78.5729 89.9375 78.5312C89.9375 78.0312 90 77.7708 90.125 77.75C92.3333 77.4167 93.7708 77.1458 94.4375 76.9375L94.5 76.9062C94.5417 76.9062 94.5729 76.9062 94.5938 76.9062C94.6771 76.9062 94.7292 77 94.75 77.1875C94.7708 77.3542 94.7708 77.4792 94.75 77.5625C94.6458 78.3958 94.5938 79.1458 94.5938 79.8125V86.25ZM109.188 93.125C109.188 92.25 108.76 91.6562 107.906 91.3438C107.052 91.0521 105.354 90.9062 102.812 90.9062C102.771 90.9062 102.708 90.9271 102.625 90.9688C102.604 90.9896 102.51 91.0312 102.344 91.0938C102.177 91.1771 102.073 91.2292 102.031 91.25C101.99 91.2708 101.896 91.3229 101.75 91.4062C101.604 91.5104 101.5 91.5729 101.438 91.5938C101.396 91.6354 101.312 91.6979 101.188 91.7812C101.062 91.8854 100.979 91.9688 100.938 92.0312C100.896 92.1146 100.833 92.2083 100.75 92.3125C100.667 92.4167 100.604 92.5208 100.562 92.625C100.542 92.7292 100.51 92.8438 100.469 92.9688C100.448 93.1146 100.438 93.2604 100.438 93.4062C100.438 94.3021 100.896 95.0208 101.812 95.5625C102.75 96.125 103.781 96.4062 104.906 96.4062C106.156 96.4062 107.177 96.0729 107.969 95.4062C108.781 94.7396 109.188 93.9792 109.188 93.125ZM101.188 81.2188C101.188 82.1771 101.479 82.9896 102.062 83.6562C102.667 84.3229 103.365 84.6562 104.156 84.6562C104.969 84.6562 105.635 84.3438 106.156 83.7188C106.698 83.0938 106.969 82.3438 106.969 81.4688C106.969 80.5104 106.667 79.6979 106.062 79.0312C105.479 78.3646 104.792 78.0312 104 78.0312C103.188 78.0312 102.51 78.3438 101.969 78.9688C101.448 79.5938 101.188 80.3438 101.188 81.2188ZM104.125 76.9688C104.896 76.9688 105.781 77.1042 106.781 77.375C107.781 77.6458 108.604 77.7812 109.25 77.7812H111.062C111.188 77.8229 111.25 78.0833 111.25 78.5625C111.25 78.8542 111.188 79 111.062 79H108.844C108.76 79 108.719 79.0312 108.719 79.0938L109.031 79.8438C109.26 80.3438 109.375 80.8438 109.375 81.3438C109.375 82.4688 108.875 83.4792 107.875 84.375C106.875 85.2708 105.646 85.7188 104.188 85.7188C103.521 85.7188 102.938 85.6771 102.438 85.5938C102.167 85.7396 101.875 86 101.562 86.375C101.271 86.75 101.125 87.0833 101.125 87.375C101.125 87.6667 101.208 87.9062 101.375 88.0938C101.542 88.2604 101.781 88.3854 102.094 88.4688C102.406 88.5312 102.708 88.5833 103 88.625C103.292 88.6458 103.635 88.6562 104.031 88.6562C104.135 88.6562 104.208 88.6562 104.25 88.6562C106.833 88.6979 108.646 88.9688 109.688 89.4688C110.729 89.9479 111.25 90.6771 111.25 91.6562C111.25 93.2604 110.573 94.6354 109.219 95.7812C107.865 96.9479 106.125 97.5417 104 97.5625C102.521 97.5833 101.188 97.3021 100 96.7188C98.8333 96.1354 98.25 95.2604 98.25 94.0938C98.25 92.8021 99.2708 91.6979 101.312 90.7812C100.75 90.6979 100.229 90.4375 99.75 90C99.2708 89.5625 99.0312 89.0312 99.0312 88.4062C99.0312 87.8646 99.2604 87.3021 99.7188 86.7188C100.198 86.1354 100.729 85.6562 101.312 85.2812C100.688 85.0521 100.104 84.5625 99.5625 83.8125C99.0417 83.0417 98.7812 82.2188 98.7812 81.3438C98.7812 80.1146 99.2917 79.0833 100.312 78.25C101.354 77.3958 102.625 76.9688 104.125 76.9688ZM116.531 88.4688C116.885 88.7604 117.344 88.9062 117.906 88.9062C118.469 88.9062 119.01 88.7396 119.531 88.4062C120.052 88.0521 120.312 87.6979 120.312 87.3438V84.125C120.146 84.2083 119.74 84.3542 119.094 84.5625C118.448 84.7708 117.938 84.9583 117.562 85.125C117.208 85.2708 116.854 85.5312 116.5 85.9062C116.167 86.2604 116 86.6771 116 87.1562C116 87.7188 116.177 88.1562 116.531 88.4688ZM119.469 76.8438C120.615 76.8438 121.438 77.125 121.938 77.6875C122.438 78.2292 122.688 79.1146 122.688 80.3438V87.5625C122.688 88 122.802 88.3646 123.031 88.6562C123.26 88.9479 123.573 89.0938 123.969 89.0938C124.26 89.0938 124.625 88.9479 125.062 88.6562C125.146 88.6562 125.188 88.7396 125.188 88.9062C125.188 89.1771 125.135 89.3958 125.031 89.5625C124.177 90.2917 123.448 90.6562 122.844 90.6562C122.365 90.6562 121.906 90.4583 121.469 90.0625C121.031 89.6667 120.729 89.25 120.562 88.8125C120.542 88.8125 120.458 88.8854 120.312 89.0312C120.188 89.1562 120.01 89.3125 119.781 89.5C119.552 89.6667 119.281 89.8438 118.969 90.0312C118.677 90.2188 118.323 90.375 117.906 90.5C117.51 90.625 117.104 90.6875 116.688 90.6875C115.729 90.6875 114.938 90.4375 114.312 89.9375C113.688 89.4167 113.375 88.6458 113.375 87.625C113.375 87.1667 113.49 86.7396 113.719 86.3438C113.948 85.9271 114.219 85.5938 114.531 85.3438C114.844 85.0729 115.271 84.8021 115.812 84.5312C116.354 84.2604 116.812 84.0625 117.188 83.9375C117.583 83.7917 118.094 83.6146 118.719 83.4062C119.344 83.1979 119.781 83.0417 120.031 82.9375C120.219 82.875 120.312 82.7188 120.312 82.4688V80.125C120.312 79.4583 120.104 78.9479 119.688 78.5938C119.271 78.2188 118.771 78.0312 118.188 78.0312C117.562 78.0312 117.042 78.25 116.625 78.6875C116.208 79.1042 116 79.6562 116 80.3438C116 81.0729 115.573 81.4375 114.719 81.4375C114.135 81.4375 113.729 81.2396 113.5 80.8438C113.5 79.9479 114.156 79.0625 115.469 78.1875C116.781 77.2917 118.115 76.8438 119.469 76.8438ZM132.594 76.8438C134.885 76.8438 136.469 77.375 137.344 78.4375C137.344 79.8333 136.958 80.5312 136.188 80.5312C135.833 80.5312 135.562 80.4583 135.375 80.3125C135.188 80.1458 134.948 79.8542 134.656 79.4375C134.01 78.4792 133.24 78 132.344 78C131.49 78 130.708 78.4062 130 79.2188C129.312 80.0312 128.969 81.2396 128.969 82.8438C128.969 84.5104 129.375 85.8958 130.188 87C131.021 88.1042 132.167 88.6562 133.625 88.6562C134.062 88.6562 134.479 88.6146 134.875 88.5312C135.271 88.4479 135.604 88.3542 135.875 88.25C136.167 88.125 136.406 88.0104 136.594 87.9062C136.802 87.7812 136.979 87.6667 137.125 87.5625L137.344 87.4062C137.469 87.4062 137.531 87.5417 137.531 87.8125C137.531 87.9792 137.469 88.1667 137.344 88.375C136.927 88.9583 136.312 89.4896 135.5 89.9688C134.688 90.4271 133.802 90.6562 132.844 90.6562C131.115 90.6562 129.625 90.0104 128.375 88.7188C127.146 87.4062 126.531 85.8125 126.531 83.9375C126.531 82.0208 127.052 80.3646 128.094 78.9688C129.135 77.5521 130.635 76.8438 132.594 76.8438ZM142.25 89C142.25 89.1458 142.375 89.2188 142.625 89.2188H146.719C147.594 89.2188 148.229 89 148.625 88.5625C149.042 88.125 149.365 87.5104 149.594 86.7188C149.635 86.4896 149.719 86.375 149.844 86.375C150.302 86.375 150.604 86.5 150.75 86.75L150.094 90.4688H139.562C139.146 90.2188 138.938 89.9792 138.938 89.75C138.938 89.6875 138.948 89.6458 138.969 89.625L147 78.4688L142.344 78.4375C141.927 78.4375 141.583 78.5417 141.312 78.75C141.042 78.9375 140.854 79.1354 140.75 79.3438C140.667 79.5521 140.573 79.8229 140.469 80.1562C140.385 80.4688 140.333 80.6562 140.312 80.7188C140.25 80.8438 140 80.9062 139.562 80.9062C139.333 80.9062 139.219 80.875 139.219 80.8125C139.219 80.7292 139.292 80.2396 139.438 79.3438C139.583 78.4271 139.677 77.6562 139.719 77.0312C140.948 77.1562 141.938 77.2188 142.688 77.2188H146.5C147.667 77.2188 148.938 77.1354 150.312 76.9688C150.375 77.0729 150.406 77.3229 150.406 77.7188L142.469 88.5625C142.323 88.7708 142.25 88.9167 142.25 89ZM155.562 70.625C155.562 71.1667 155.448 71.7083 155.219 72.25C155.01 72.7708 154.75 73.2083 154.438 73.5625C154.125 73.9167 153.802 74.2396 153.469 74.5312C153.135 74.8021 152.844 75.0104 152.594 75.1562C152.365 75.2812 152.219 75.3438 152.156 75.3438C151.885 75.3438 151.677 75.1562 151.531 74.7812C152.094 74.4479 152.552 74.0625 152.906 73.625C153.281 73.1667 153.51 72.8125 153.594 72.5625C153.698 72.2917 153.75 72.0833 153.75 71.9375C153.75 71.6667 153.531 71.3021 153.094 70.8438C152.677 70.3646 152.469 69.9792 152.469 69.6875C152.469 69.3125 152.677 69 153.094 68.75C153.51 68.4792 153.979 68.3438 154.5 68.3438C154.688 68.3438 154.896 68.375 155.125 68.4375C155.417 68.8542 155.562 69.5833 155.562 70.625ZM161.938 76.8125C162.396 76.8125 162.969 76.875 163.656 77C164.365 77.1042 164.854 77.1771 165.125 77.2188C165.333 78.1771 165.458 79.2396 165.5 80.4062C165.5 80.5104 165.365 80.5625 165.094 80.5625C164.802 80.5625 164.646 80.4896 164.625 80.3438C164.521 79.7604 164.219 79.2083 163.719 78.6875C163.24 78.1667 162.688 77.9062 162.062 77.9062C160.562 77.9062 159.812 78.5208 159.812 79.75C159.812 80.0625 159.854 80.3438 159.938 80.5938C160.021 80.8229 160.177 81.0521 160.406 81.2812C160.656 81.4896 160.844 81.6458 160.969 81.75C161.094 81.8333 161.365 82 161.781 82.25C162.219 82.4792 162.49 82.625 162.594 82.6875C162.677 82.7292 162.917 82.875 163.312 83.125C163.729 83.3542 164.021 83.5208 164.188 83.625C164.354 83.7292 164.594 83.9062 164.906 84.1562C165.24 84.4062 165.479 84.6354 165.625 84.8438C165.771 85.0312 165.906 85.2812 166.031 85.5938C166.177 85.8854 166.25 86.1875 166.25 86.5C166.25 87.7292 165.771 88.7604 164.812 89.5938C163.854 90.4062 162.729 90.8125 161.438 90.8125C161 90.8125 160.594 90.7812 160.219 90.7188C159.865 90.6771 159.438 90.5938 158.938 90.4688C158.438 90.3438 158.052 90.2604 157.781 90.2188C157.656 89.8854 157.531 89.3646 157.406 88.6562C157.302 87.9479 157.25 87.3854 157.25 86.9688C157.417 86.8438 157.542 86.7812 157.625 86.7812C157.938 86.7812 158.104 86.8438 158.125 86.9688C158.25 87.5938 158.635 88.2083 159.281 88.8125C159.948 89.3958 160.667 89.6875 161.438 89.6875C162.104 89.6875 162.646 89.5104 163.062 89.1562C163.5 88.7812 163.719 88.25 163.719 87.5625C163.719 87.2083 163.646 86.8854 163.5 86.5938C163.375 86.2812 163.156 86.0104 162.844 85.7812C162.552 85.5312 162.271 85.3333 162 85.1875C161.75 85.0208 161.385 84.8125 160.906 84.5625C160.427 84.3125 160.073 84.1146 159.844 83.9688C158.219 83.0312 157.406 81.9167 157.406 80.625C157.406 79.5 157.854 78.5833 158.75 77.875C159.667 77.1667 160.729 76.8125 161.938 76.8125ZM179.562 69.9375C180.333 69.9375 181.292 69.8854 182.438 69.7812C182.583 70.2604 184.646 75.4792 188.625 85.4375C188.646 85.4792 188.688 85.5 188.75 85.5C188.833 85.5 188.885 85.4583 188.906 85.375C190.948 80.5833 192.573 76.6354 193.781 73.5312C193.781 73.5312 194.198 72.2812 195.031 69.7812C196.365 69.8646 197.229 69.9062 197.625 69.9062C198.917 69.9062 200.083 69.8646 201.125 69.7812C201.188 69.9688 201.219 70.125 201.219 70.25C201.219 70.5417 201.167 70.6875 201.062 70.6875H201C200.771 70.6875 200.469 70.7604 200.094 70.9062C199.719 71.0312 199.438 71.1667 199.25 71.3125C199 71.5 198.875 72.1979 198.875 73.4062C198.875 73.7396 198.969 77.9688 199.156 86.0938C199.177 87.2812 199.333 88.2396 199.625 88.9688C199.708 89.1562 200.021 89.3229 200.562 89.4688C201.104 89.5938 201.49 89.6562 201.719 89.6562C201.802 89.6562 201.844 89.8021 201.844 90.0938C201.844 90.2812 201.823 90.4375 201.781 90.5625C199.698 90.4583 198.458 90.4062 198.062 90.4062C197.958 90.4062 196.708 90.4583 194.312 90.5625C194.229 90.4792 194.188 90.3125 194.188 90.0625C194.188 89.7917 194.229 89.6562 194.312 89.6562C194.521 89.6562 194.833 89.6042 195.25 89.5C195.688 89.3958 196 89.2917 196.188 89.1875C196.438 89.0417 196.562 88.5938 196.562 87.8438V86.1875L196.188 75.1875C196.167 74.8542 196.104 74.4688 196 74.0312C195.917 73.5729 195.823 73.3438 195.719 73.3438C195.677 73.3438 195.625 73.4167 195.562 73.5625L189.031 89.1875C188.635 90.0833 188.25 90.5312 187.875 90.5312C187.812 90.5312 187.719 90.5104 187.594 90.4688L180.438 72.2812C180.396 74.2812 180.333 76.5729 180.25 79.1562C180.167 81.7396 180.094 83.875 180.031 85.5625C179.969 87.2292 179.938 88.0833 179.938 88.125C179.938 88.5 180 88.7708 180.125 88.9375C180.25 89.1042 180.625 89.2708 181.25 89.4375C181.896 89.5833 182.323 89.6562 182.531 89.6562C182.615 89.6562 182.656 89.8125 182.656 90.125C182.656 90.2917 182.635 90.4375 182.594 90.5625C180.51 90.4583 179.302 90.4062 178.969 90.4062C178.927 90.4062 177.708 90.4583 175.312 90.5625C175.208 90.4583 175.156 90.3021 175.156 90.0938C175.156 89.8021 175.208 89.6562 175.312 89.6562C175.604 89.6562 176.031 89.5938 176.594 89.4688C177.177 89.3229 177.562 89.1562 177.75 88.9688C178.083 88.5938 178.271 87.6875 178.312 86.25C178.354 84.0833 178.396 81.9479 178.438 79.8438C178.5 77.7396 178.552 76.0938 178.594 74.9062C178.635 73.6979 178.656 72.9271 178.656 72.5938C178.656 72.0729 178.615 71.6562 178.531 71.3438C178.469 71.1771 178.115 71.0312 177.469 70.9062C176.823 70.7604 176.354 70.6875 176.062 70.6875C175.979 70.6875 175.938 70.5417 175.938 70.25C175.938 70.0208 175.979 69.8646 176.062 69.7812C176.417 69.8021 176.802 69.8229 177.219 69.8438C177.656 69.8646 178.052 69.8854 178.406 69.9062C178.76 69.9271 179.146 69.9375 179.562 69.9375ZM210.375 78.0312C209.271 78.0312 208.365 78.5417 207.656 79.5625C206.969 80.5625 206.625 81.7917 206.625 83.25C206.625 84.9583 207.062 86.4271 207.938 87.6562C208.833 88.8646 209.875 89.4688 211.062 89.4688C212.167 89.4688 213.073 88.9479 213.781 87.9062C214.49 86.8646 214.844 85.6146 214.844 84.1562C214.844 82.4688 214.396 81.0312 213.5 79.8438C212.604 78.6354 211.562 78.0312 210.375 78.0312ZM210.719 76.8125C212.594 76.8125 214.198 77.4896 215.531 78.8438C216.865 80.1979 217.531 81.8229 217.531 83.7188C217.531 85.6354 216.875 87.2812 215.562 88.6562C214.271 90.0104 212.677 90.6875 210.781 90.6875C208.885 90.6875 207.271 90.0104 205.938 88.6562C204.604 87.2812 203.938 85.6354 203.938 83.7188C203.938 81.7812 204.583 80.1458 205.875 78.8125C207.167 77.4792 208.781 76.8125 210.719 76.8125ZM226.469 78.0312C225.26 78.0312 224.312 78.5729 223.625 79.6562C222.938 80.7396 222.594 82 222.594 83.4375C222.594 84.9583 223 86.2812 223.812 87.4062C224.625 88.5104 225.75 89.0625 227.188 89.0625C227.896 89.0625 228.448 88.9062 228.844 88.5938C229.24 88.2604 229.438 87.8229 229.438 87.2812V79.8438C229.438 79.4062 229.198 79 228.719 78.625C228.26 78.2292 227.51 78.0312 226.469 78.0312ZM226.875 76.7188C227.771 76.7188 228.552 76.8958 229.219 77.25C229.365 77.25 229.438 77.0625 229.438 76.6875V73.3125C229.438 72.6042 229.375 71.9375 229.25 71.3125C229.146 70.9792 228.615 70.8125 227.656 70.8125H227.375C227.25 70.8125 227.188 70.6979 227.188 70.4688C227.188 70.1354 227.25 69.9688 227.375 69.9688C228 69.9062 228.573 69.8229 229.094 69.7188C229.635 69.6146 230.052 69.5104 230.344 69.4062C230.656 69.3021 230.917 69.2083 231.125 69.125C231.333 69.0208 231.49 68.9375 231.594 68.875L231.719 68.7812H231.781C231.865 68.7812 231.948 68.8438 232.031 68.9688C232.115 69.0729 232.167 69.1771 232.188 69.2812C231.958 69.9479 231.844 70.8542 231.844 72V86.0625C231.844 87.0625 231.906 87.8542 232.031 88.4375C232.073 88.5833 232.188 88.6979 232.375 88.7812C232.562 88.8646 232.75 88.9167 232.938 88.9375C233.146 88.9583 233.344 88.9688 233.531 88.9688L233.812 89C233.875 89.0208 233.906 89.1458 233.906 89.375C233.906 89.6875 233.844 89.8438 233.719 89.8438C233.406 89.8646 233.052 89.9062 232.656 89.9688C232.281 90.0312 231.917 90.1042 231.562 90.1875C231.229 90.25 230.917 90.3229 230.625 90.4062C230.333 90.4688 230.094 90.5312 229.906 90.5938L229.625 90.6562C229.5 90.6562 229.438 90.4792 229.438 90.125V89.75C229.438 89.625 229.396 89.5833 229.312 89.625C228.146 90.2708 227.042 90.5938 226 90.5938C224.271 90.5938 222.823 89.9792 221.656 88.75C220.49 87.5208 219.906 86.0521 219.906 84.3438C219.906 82.3229 220.615 80.5521 222.031 79.0312C223.469 77.4896 225.083 76.7188 226.875 76.7188ZM238.625 88.4688C238.979 88.7604 239.438 88.9062 240 88.9062C240.562 88.9062 241.104 88.7396 241.625 88.4062C242.146 88.0521 242.406 87.6979 242.406 87.3438V84.125C242.24 84.2083 241.833 84.3542 241.188 84.5625C240.542 84.7708 240.031 84.9583 239.656 85.125C239.302 85.2708 238.948 85.5312 238.594 85.9062C238.26 86.2604 238.094 86.6771 238.094 87.1562C238.094 87.7188 238.271 88.1562 238.625 88.4688ZM241.562 76.8438C242.708 76.8438 243.531 77.125 244.031 77.6875C244.531 78.2292 244.781 79.1146 244.781 80.3438V87.5625C244.781 88 244.896 88.3646 245.125 88.6562C245.354 88.9479 245.667 89.0938 246.062 89.0938C246.354 89.0938 246.719 88.9479 247.156 88.6562C247.24 88.6562 247.281 88.7396 247.281 88.9062C247.281 89.1771 247.229 89.3958 247.125 89.5625C246.271 90.2917 245.542 90.6562 244.938 90.6562C244.458 90.6562 244 90.4583 243.562 90.0625C243.125 89.6667 242.823 89.25 242.656 88.8125C242.635 88.8125 242.552 88.8854 242.406 89.0312C242.281 89.1562 242.104 89.3125 241.875 89.5C241.646 89.6667 241.375 89.8438 241.062 90.0312C240.771 90.2188 240.417 90.375 240 90.5C239.604 90.625 239.198 90.6875 238.781 90.6875C237.823 90.6875 237.031 90.4375 236.406 89.9375C235.781 89.4167 235.469 88.6458 235.469 87.625C235.469 87.1667 235.583 86.7396 235.812 86.3438C236.042 85.9271 236.312 85.5938 236.625 85.3438C236.938 85.0729 237.365 84.8021 237.906 84.5312C238.448 84.2604 238.906 84.0625 239.281 83.9375C239.677 83.7917 240.188 83.6146 240.812 83.4062C241.438 83.1979 241.875 83.0417 242.125 82.9375C242.312 82.875 242.406 82.7188 242.406 82.4688V80.125C242.406 79.4583 242.198 78.9479 241.781 78.5938C241.365 78.2188 240.865 78.0312 240.281 78.0312C239.656 78.0312 239.135 78.25 238.719 78.6875C238.302 79.1042 238.094 79.6562 238.094 80.3438C238.094 81.0729 237.667 81.4375 236.812 81.4375C236.229 81.4375 235.823 81.2396 235.594 80.8438C235.594 79.9479 236.25 79.0625 237.562 78.1875C238.875 77.2917 240.208 76.8438 241.562 76.8438ZM253.438 76.8125C253.896 76.8125 254.469 76.875 255.156 77C255.865 77.1042 256.354 77.1771 256.625 77.2188C256.833 78.1771 256.958 79.2396 257 80.4062C257 80.5104 256.865 80.5625 256.594 80.5625C256.302 80.5625 256.146 80.4896 256.125 80.3438C256.021 79.7604 255.719 79.2083 255.219 78.6875C254.74 78.1667 254.188 77.9062 253.562 77.9062C252.062 77.9062 251.312 78.5208 251.312 79.75C251.312 80.0625 251.354 80.3438 251.438 80.5938C251.521 80.8229 251.677 81.0521 251.906 81.2812C252.156 81.4896 252.344 81.6458 252.469 81.75C252.594 81.8333 252.865 82 253.281 82.25C253.719 82.4792 253.99 82.625 254.094 82.6875C254.177 82.7292 254.417 82.875 254.812 83.125C255.229 83.3542 255.521 83.5208 255.688 83.625C255.854 83.7292 256.094 83.9062 256.406 84.1562C256.74 84.4062 256.979 84.6354 257.125 84.8438C257.271 85.0312 257.406 85.2812 257.531 85.5938C257.677 85.8854 257.75 86.1875 257.75 86.5C257.75 87.7292 257.271 88.7604 256.312 89.5938C255.354 90.4062 254.229 90.8125 252.938 90.8125C252.5 90.8125 252.094 90.7812 251.719 90.7188C251.365 90.6771 250.938 90.5938 250.438 90.4688C249.938 90.3438 249.552 90.2604 249.281 90.2188C249.156 89.8854 249.031 89.3646 248.906 88.6562C248.802 87.9479 248.75 87.3854 248.75 86.9688C248.917 86.8438 249.042 86.7812 249.125 86.7812C249.438 86.7812 249.604 86.8438 249.625 86.9688C249.75 87.5938 250.135 88.2083 250.781 88.8125C251.448 89.3958 252.167 89.6875 252.938 89.6875C253.604 89.6875 254.146 89.5104 254.562 89.1562C255 88.7812 255.219 88.25 255.219 87.5625C255.219 87.2083 255.146 86.8854 255 86.5938C254.875 86.2812 254.656 86.0104 254.344 85.7812C254.052 85.5312 253.771 85.3333 253.5 85.1875C253.25 85.0208 252.885 84.8125 252.406 84.5625C251.927 84.3125 251.573 84.1146 251.344 83.9688C249.719 83.0312 248.906 81.9167 248.906 80.625C248.906 79.5 249.354 78.5833 250.25 77.875C251.167 77.1667 252.229 76.8125 253.438 76.8125Z" fill="#333333"/>
<path d="M144.216 124.976C144.824 124.976 145.272 124.896 145.56 124.736C145.859 124.576 146.008 124.32 146.008 123.968C146.008 123.605 145.864 123.317 145.576 123.104C145.288 122.891 144.813 122.651 144.152 122.384C143.832 122.256 143.523 122.128 143.224 122C142.936 121.861 142.685 121.701 142.472 121.52C142.259 121.339 142.088 121.12 141.96 120.864C141.832 120.608 141.768 120.293 141.768 119.92C141.768 119.184 142.04 118.603 142.584 118.176C143.128 117.739 143.869 117.52 144.808 117.52C145.043 117.52 145.277 117.536 145.512 117.568C145.747 117.589 145.965 117.621 146.168 117.664C146.371 117.696 146.547 117.733 146.696 117.776C146.856 117.819 146.979 117.856 147.064 117.888L146.792 119.168C146.632 119.083 146.381 118.997 146.04 118.912C145.699 118.816 145.288 118.768 144.808 118.768C144.392 118.768 144.029 118.853 143.72 119.024C143.411 119.184 143.256 119.44 143.256 119.792C143.256 119.973 143.288 120.133 143.352 120.272C143.427 120.411 143.533 120.539 143.672 120.656C143.821 120.763 144.003 120.864 144.216 120.96C144.429 121.056 144.685 121.157 144.984 121.264C145.379 121.413 145.731 121.563 146.04 121.712C146.349 121.851 146.611 122.016 146.824 122.208C147.048 122.4 147.219 122.635 147.336 122.912C147.453 123.179 147.512 123.509 147.512 123.904C147.512 124.672 147.224 125.253 146.648 125.648C146.083 126.043 145.272 126.24 144.216 126.24C143.48 126.24 142.904 126.176 142.488 126.048C142.072 125.931 141.789 125.84 141.64 125.776L141.912 124.496C142.083 124.56 142.355 124.656 142.728 124.784C143.101 124.912 143.597 124.976 144.216 124.976ZM150.813 117.728H153.965V118.976H150.813V122.816C150.813 123.232 150.845 123.579 150.909 123.856C150.973 124.123 151.069 124.336 151.197 124.496C151.325 124.645 151.485 124.752 151.677 124.816C151.869 124.88 152.093 124.912 152.349 124.912C152.797 124.912 153.154 124.864 153.421 124.768C153.698 124.661 153.89 124.587 153.997 124.544L154.285 125.776C154.135 125.851 153.874 125.941 153.501 126.048C153.127 126.165 152.701 126.224 152.221 126.224C151.655 126.224 151.186 126.155 150.813 126.016C150.45 125.867 150.157 125.648 149.933 125.36C149.709 125.072 149.549 124.72 149.453 124.304C149.367 123.877 149.325 123.387 149.325 122.832V115.408L150.813 115.152V117.728ZM162.983 121.888C162.983 122.549 162.887 123.147 162.695 123.68C162.503 124.213 162.231 124.672 161.879 125.056C161.538 125.44 161.127 125.739 160.647 125.952C160.167 126.155 159.645 126.256 159.079 126.256C158.514 126.256 157.991 126.155 157.511 125.952C157.031 125.739 156.615 125.44 156.263 125.056C155.922 124.672 155.655 124.213 155.463 123.68C155.271 123.147 155.175 122.549 155.175 121.888C155.175 121.237 155.271 120.645 155.463 120.112C155.655 119.568 155.922 119.104 156.263 118.72C156.615 118.336 157.031 118.043 157.511 117.84C157.991 117.627 158.514 117.52 159.079 117.52C159.645 117.52 160.167 117.627 160.647 117.84C161.127 118.043 161.538 118.336 161.879 118.72C162.231 119.104 162.503 119.568 162.695 120.112C162.887 120.645 162.983 121.237 162.983 121.888ZM161.431 121.888C161.431 120.949 161.218 120.208 160.791 119.664C160.375 119.109 159.805 118.832 159.079 118.832C158.354 118.832 157.778 119.109 157.351 119.664C156.935 120.208 156.727 120.949 156.727 121.888C156.727 122.827 156.935 123.573 157.351 124.128C157.778 124.672 158.354 124.944 159.079 124.944C159.805 124.944 160.375 124.672 160.791 124.128C161.218 123.573 161.431 122.827 161.431 121.888ZM168.149 117.552C168.277 117.552 168.421 117.563 168.581 117.584C168.752 117.595 168.917 117.616 169.077 117.648C169.237 117.669 169.381 117.696 169.509 117.728C169.648 117.749 169.749 117.771 169.813 117.792L169.557 119.088C169.44 119.045 169.242 118.997 168.965 118.944C168.698 118.88 168.352 118.848 167.925 118.848C167.648 118.848 167.37 118.88 167.093 118.944C166.826 118.997 166.65 119.035 166.565 119.056V126.048H165.077V118.08C165.429 117.952 165.866 117.835 166.389 117.728C166.912 117.611 167.498 117.552 168.149 117.552ZM170.785 121.904C170.785 121.168 170.891 120.528 171.105 119.984C171.318 119.429 171.601 118.971 171.953 118.608C172.305 118.245 172.71 117.973 173.169 117.792C173.627 117.611 174.097 117.52 174.577 117.52C175.697 117.52 176.555 117.872 177.153 118.576C177.75 119.269 178.049 120.331 178.049 121.76C178.049 121.824 178.049 121.909 178.049 122.016C178.049 122.112 178.043 122.203 178.033 122.288H172.337C172.401 123.152 172.651 123.808 173.089 124.256C173.526 124.704 174.209 124.928 175.137 124.928C175.659 124.928 176.097 124.885 176.449 124.8C176.811 124.704 177.083 124.613 177.265 124.528L177.473 125.776C177.291 125.872 176.971 125.973 176.513 126.08C176.065 126.187 175.553 126.24 174.977 126.24C174.251 126.24 173.622 126.133 173.089 125.92C172.566 125.696 172.134 125.392 171.793 125.008C171.451 124.624 171.195 124.171 171.025 123.648C170.865 123.115 170.785 122.533 170.785 121.904ZM176.497 121.088C176.507 120.416 176.337 119.867 175.985 119.44C175.643 119.003 175.169 118.784 174.561 118.784C174.219 118.784 173.915 118.853 173.649 118.992C173.393 119.12 173.174 119.291 172.993 119.504C172.811 119.717 172.667 119.963 172.561 120.24C172.465 120.517 172.401 120.8 172.369 121.088H176.497Z" fill="#D4AF37"/>
<line x1="183.516" y1="121.956" x2="319.163" y2="121.956" stroke="#EAAB39"/>
<line x1="0.664856" y1="121.956" x2="136.312" y2="121.956" stroke="#D4AF37"/>
</svg>
