<svg width="292" height="48" viewBox="0 0 292 48" fill="none" xmlns="http://www.w3.org/2000/svg">
<mask id="path-1-inside-1" fill="white">
<path fill-rule="evenodd" clip-rule="evenodd" d="M45.3794 35.8755C50.5749 35.8712 55.6264 33.1731 58.4109 28.3501C61.1955 23.5271 61.0063 17.8033 58.4124 13.3017C53.2169 13.3061 48.1654 16.0042 45.3808 20.8272C42.5963 25.6501 42.7855 31.374 45.3794 35.8755Z"/>
</mask>
<path fill-rule="evenodd" clip-rule="evenodd" d="M45.3794 35.8755C50.5749 35.8712 55.6264 33.1731 58.4109 28.3501C61.1955 23.5271 61.0063 17.8033 58.4124 13.3017C53.2169 13.3061 48.1654 16.0042 45.3808 20.8272C42.5963 25.6501 42.7855 31.374 45.3794 35.8755Z" fill="#D4AF37" fill-opacity="0.74"/>
<path d="M45.3794 35.8755L44.513 36.3748L44.8018 36.876L45.3802 36.8755L45.3794 35.8755ZM58.4124 13.3017L59.2788 12.8025L58.99 12.3013L58.4115 12.3017L58.4124 13.3017ZM57.5449 27.8501C54.9461 32.3514 50.2317 34.8715 45.3786 34.8755L45.3802 36.8755C50.918 36.8709 56.3067 33.9947 59.277 28.8501L57.5449 27.8501ZM57.5459 13.801C59.969 18.006 60.1438 23.3488 57.5449 27.8501L59.277 28.8501C62.2472 23.7055 62.0437 17.6006 59.2788 12.8025L57.5459 13.801ZM46.2469 21.3272C48.8457 16.8258 53.5601 14.3058 58.4132 14.3017L58.4115 12.3017C52.8738 12.3064 47.4851 15.1826 44.5148 20.3272L46.2469 21.3272ZM46.2458 35.3763C43.8228 31.1713 43.648 25.8285 46.2469 21.3272L44.5148 20.3272C41.5446 25.4718 41.7481 31.5767 44.513 36.3748L46.2458 35.3763Z" fill="white" mask="url(#path-1-inside-1)"/>
<mask id="path-3-inside-2" fill="white">
<path fill-rule="evenodd" clip-rule="evenodd" d="M43.3695 35.8755C38.174 35.8712 33.1225 33.1731 30.338 28.3501C27.5534 23.5271 27.7426 17.8033 30.3365 13.3017C35.532 13.3061 40.5835 16.0042 43.3681 20.8272C46.1526 25.6501 45.9634 31.374 43.3695 35.8755Z"/>
</mask>
<path fill-rule="evenodd" clip-rule="evenodd" d="M43.3695 35.8755C38.174 35.8712 33.1225 33.1731 30.338 28.3501C27.5534 23.5271 27.7426 17.8033 30.3365 13.3017C35.532 13.3061 40.5835 16.0042 43.3681 20.8272C46.1526 25.6501 45.9634 31.374 43.3695 35.8755Z" fill="#D4AF37" fill-opacity="0.74"/>
<path d="M43.3695 35.8755L44.2359 36.3748L43.9471 36.876L43.3687 36.8755L43.3695 35.8755ZM30.3365 13.3017L29.4701 12.8025L29.7589 12.3013L30.3374 12.3017L30.3365 13.3017ZM31.204 27.8501C33.8028 32.3514 38.5172 34.8715 43.3703 34.8755L43.3687 36.8755C37.8309 36.8709 32.4422 33.9947 29.4719 28.8501L31.204 27.8501ZM31.203 13.801C28.7799 18.006 28.6051 23.3488 31.204 27.8501L29.4719 28.8501C26.5017 23.7055 26.7052 17.6006 29.4701 12.8025L31.203 13.801ZM42.502 21.3272C39.9032 16.8258 35.1888 14.3058 30.3357 14.3017L30.3374 12.3017C35.8751 12.3064 41.2638 15.1826 44.2341 20.3272L42.502 21.3272ZM42.5031 35.3763C44.9261 31.1713 45.1009 25.8285 42.502 21.3272L44.2341 20.3272C47.2043 25.4718 47.0008 31.5767 44.2359 36.3748L42.5031 35.3763Z" fill="white" mask="url(#path-3-inside-2)"/>
<path d="M9.51654 12.4616L17.9965 29.5016L26.3965 12.4616H30.8365V37.6216H27.6765V16.9416L19.0365 34.4616H16.9165L8.15654 16.6616V37.6216H4.99654V12.4616H9.51654Z" fill="#F4F4F4"/>
<path d="M62.3524 12.4616L70.8324 29.5016L79.2324 12.4616H83.6724V37.6216H80.5124V16.9416L71.8724 34.4616H69.7524L60.9924 16.6616V37.6216H57.8324V12.4616H62.3524Z" fill="#F4F4F4"/>
<mask id="path-7-inside-3" fill="white">
<path fill-rule="evenodd" clip-rule="evenodd" d="M67.5177 24.037C67.5133 29.2325 64.8152 34.284 59.9923 37.0685C55.1693 39.8531 49.4455 39.6639 44.9439 37.07C44.9483 31.8745 47.6464 26.823 52.4693 24.0385C57.2923 21.2539 63.0161 21.4431 67.5177 24.037Z"/>
</mask>
<path fill-rule="evenodd" clip-rule="evenodd" d="M67.5177 24.037C67.5133 29.2325 64.8152 34.284 59.9923 37.0685C55.1693 39.8531 49.4455 39.6639 44.9439 37.07C44.9483 31.8745 47.6464 26.823 52.4693 24.0385C57.2923 21.2539 63.0161 21.4431 67.5177 24.037Z" fill="#D4AF37" fill-opacity="0.74"/>
<path d="M67.5177 24.037L68.5177 24.0379L68.5182 23.4594L68.017 23.1706L67.5177 24.037ZM44.9439 37.07L43.9439 37.0692L43.9434 37.6476L44.4446 37.9364L44.9439 37.07ZM66.5177 24.0362C66.5136 28.8893 63.9936 33.6037 59.4923 36.2025L60.4923 37.9346C65.6369 34.9643 68.513 29.5756 68.5177 24.0379L66.5177 24.0362ZM59.4923 36.2025C54.9909 38.8014 49.6482 38.6266 45.4432 36.2035L44.4446 37.9364C49.2428 40.7013 55.3476 40.9048 60.4923 37.9346L59.4923 36.2025ZM45.9439 37.0708C45.948 32.2177 48.468 27.5033 52.9693 24.9045L51.9693 23.1724C46.8247 26.1427 43.9485 31.5314 43.9439 37.0692L45.9439 37.0708ZM52.9693 24.9045C57.4707 22.3056 62.8134 22.4804 67.0184 24.9035L68.017 23.1706C63.2188 20.4057 57.1139 20.2022 51.9693 23.1724L52.9693 24.9045Z" fill="white" mask="url(#path-7-inside-3)"/>
<mask id="path-9-inside-4" fill="white">
<path fill-rule="evenodd" clip-rule="evenodd" d="M21.2312 24.037C21.2356 29.2325 23.9337 34.284 28.7566 37.0685C33.5796 39.8531 39.3034 39.6639 43.805 37.07C43.8006 31.8745 41.1025 26.823 36.2796 24.0385C31.4566 21.2539 25.7328 21.4431 21.2312 24.037Z"/>
</mask>
<path fill-rule="evenodd" clip-rule="evenodd" d="M21.2312 24.037C21.2356 29.2325 23.9337 34.284 28.7566 37.0685C33.5796 39.8531 39.3034 39.6639 43.805 37.07C43.8006 31.8745 41.1025 26.823 36.2796 24.0385C31.4566 21.2539 25.7328 21.4431 21.2312 24.037Z" fill="#D4AF37" fill-opacity="0.74"/>
<path d="M21.2312 24.037L20.2312 24.0379L20.2307 23.4594L20.7319 23.1706L21.2312 24.037ZM43.805 37.07L44.805 37.0692L44.8055 37.6476L44.3043 37.9364L43.805 37.07ZM22.2312 24.0362C22.2353 28.8893 24.7553 33.6037 29.2566 36.2025L28.2566 37.9346C23.112 34.9643 20.2359 29.5756 20.2312 24.0379L22.2312 24.0362ZM29.2566 36.2025C33.758 38.8014 39.1007 38.6266 43.3057 36.2035L44.3043 37.9364C39.5061 40.7013 33.4013 40.9048 28.2566 37.9346L29.2566 36.2025ZM42.805 37.0708C42.8009 32.2177 40.2809 27.5033 35.7796 24.9045L36.7796 23.1724C41.9242 26.1427 44.8004 31.5314 44.805 37.0692L42.805 37.0708ZM35.7796 24.9045C31.2782 22.3056 25.9355 22.4804 21.7305 24.9035L20.7319 23.1706C25.5301 20.4057 31.635 20.2022 36.7796 23.1724L35.7796 24.9045Z" fill="white" mask="url(#path-9-inside-4)"/>
<mask id="path-11-inside-5" fill="white">
<path fill-rule="evenodd" clip-rule="evenodd" d="M44.3745 37.6216C48.8717 35.0201 51.8974 30.1577 51.8974 24.5886C51.8974 19.0196 48.8717 14.1572 44.3745 11.5557C39.8773 14.1572 36.8516 19.0196 36.8516 24.5886C36.8516 30.1577 39.8773 35.0201 44.3745 37.6216Z"/>
</mask>
<path fill-rule="evenodd" clip-rule="evenodd" d="M44.3745 37.6216C48.8717 35.0201 51.8974 30.1577 51.8974 24.5886C51.8974 19.0196 48.8717 14.1572 44.3745 11.5557C39.8773 14.1572 36.8516 19.0196 36.8516 24.5886C36.8516 30.1577 39.8773 35.0201 44.3745 37.6216Z" fill="#D4AF37" fill-opacity="0.74"/>
<path d="M44.3745 37.6216L43.8738 38.4872L44.3745 38.7769L44.8752 38.4872L44.3745 37.6216ZM44.3745 11.5557L44.8752 10.6901L44.3745 10.4004L43.8738 10.6901L44.3745 11.5557ZM50.8974 24.5886C50.8974 29.7863 48.0747 34.3259 43.8738 36.756L44.8752 38.4872C49.6687 35.7143 52.8974 30.5291 52.8974 24.5886L50.8974 24.5886ZM43.8738 12.4213C48.0747 14.8514 50.8974 19.391 50.8974 24.5886L52.8974 24.5886C52.8974 18.6482 49.6687 13.463 44.8752 10.6901L43.8738 12.4213ZM37.8516 24.5886C37.8516 19.391 40.6743 14.8514 44.8752 12.4213L43.8738 10.6901C39.0803 13.463 35.8516 18.6482 35.8516 24.5886L37.8516 24.5886ZM44.8752 36.756C40.6743 34.3259 37.8516 29.7863 37.8516 24.5886L35.8516 24.5886C35.8516 30.5291 39.0803 35.7143 43.8738 38.4872L44.8752 36.756Z" fill="white" mask="url(#path-11-inside-5)"/>
<path d="M97.9335 14.5374C98.7043 14.5374 99.6626 14.4853 100.808 14.3811C100.954 14.8603 103.017 20.079 106.996 30.0374C107.017 30.079 107.058 30.0999 107.121 30.0999C107.204 30.0999 107.256 30.0582 107.277 29.9749C109.319 25.1832 110.944 21.2353 112.152 18.1311C112.152 18.1311 112.569 16.8811 113.402 14.3811C114.736 14.4644 115.6 14.5061 115.996 14.5061C117.288 14.5061 118.454 14.4644 119.496 14.3811C119.558 14.5686 119.59 14.7249 119.59 14.8499C119.59 15.1415 119.538 15.2874 119.433 15.2874H119.371C119.142 15.2874 118.84 15.3603 118.465 15.5061C118.09 15.6311 117.808 15.7665 117.621 15.9124C117.371 16.0999 117.246 16.7978 117.246 18.0061C117.246 18.3394 117.34 22.5686 117.527 30.6936C117.548 31.8811 117.704 32.8394 117.996 33.5686C118.079 33.7561 118.392 33.9228 118.933 34.0686C119.475 34.1936 119.861 34.2561 120.09 34.2561C120.173 34.2561 120.215 34.4019 120.215 34.6936C120.215 34.8811 120.194 35.0374 120.152 35.1624C118.069 35.0582 116.829 35.0061 116.433 35.0061C116.329 35.0061 115.079 35.0582 112.683 35.1624C112.6 35.079 112.558 34.9124 112.558 34.6624C112.558 34.3915 112.6 34.2561 112.683 34.2561C112.892 34.2561 113.204 34.204 113.621 34.0999C114.058 33.9957 114.371 33.8915 114.558 33.7874C114.808 33.6415 114.933 33.1936 114.933 32.4436V30.7874L114.558 19.7874C114.538 19.454 114.475 19.0686 114.371 18.6311C114.288 18.1728 114.194 17.9436 114.09 17.9436C114.048 17.9436 113.996 18.0165 113.933 18.1624L107.402 33.7874C107.006 34.6832 106.621 35.1311 106.246 35.1311C106.183 35.1311 106.09 35.1103 105.965 35.0686L98.8085 16.8811C98.7668 18.8811 98.7043 21.1728 98.621 23.7561C98.5376 26.3394 98.4647 28.4749 98.4022 30.1624C98.3397 31.829 98.3085 32.6832 98.3085 32.7249C98.3085 33.0999 98.371 33.3707 98.496 33.5374C98.621 33.704 98.996 33.8707 99.621 34.0374C100.267 34.1832 100.694 34.2561 100.902 34.2561C100.986 34.2561 101.027 34.4124 101.027 34.7249C101.027 34.8915 101.006 35.0374 100.965 35.1624C98.8814 35.0582 97.6731 35.0061 97.3397 35.0061C97.2981 35.0061 96.0793 35.0582 93.6835 35.1624C93.5793 35.0582 93.5272 34.9019 93.5272 34.6936C93.5272 34.4019 93.5793 34.2561 93.6835 34.2561C93.9751 34.2561 94.4022 34.1936 94.9647 34.0686C95.5481 33.9228 95.9335 33.7561 96.121 33.5686C96.4543 33.1936 96.6418 32.2874 96.6835 30.8499C96.7251 28.6832 96.7668 26.5478 96.8085 24.4436C96.871 22.3394 96.9231 20.6936 96.9647 19.5061C97.0064 18.2978 97.0272 17.5269 97.0272 17.1936C97.0272 16.6728 96.9856 16.2561 96.9022 15.9436C96.8397 15.7769 96.4856 15.6311 95.8397 15.5061C95.1939 15.3603 94.7251 15.2874 94.4335 15.2874C94.3501 15.2874 94.3085 15.1415 94.3085 14.8499C94.3085 14.6207 94.3501 14.4644 94.4335 14.3811C94.7876 14.4019 95.1731 14.4228 95.5897 14.4436C96.0272 14.4644 96.4231 14.4853 96.7772 14.5061C97.1314 14.5269 97.5168 14.5374 97.9335 14.5374ZM124.246 17.6624C123.954 17.3499 123.808 16.9749 123.808 16.5374C123.808 16.0999 123.954 15.7353 124.246 15.4436C124.558 15.1311 124.933 14.9749 125.371 14.9749C125.808 14.9749 126.173 15.1311 126.465 15.4436C126.777 15.7353 126.933 16.0999 126.933 16.5374C126.933 16.9749 126.777 17.3499 126.465 17.6624C126.173 17.954 125.808 18.0999 125.371 18.0999C124.933 18.0999 124.558 17.954 124.246 17.6624ZM126.808 30.8499C126.808 32.0582 126.892 32.9853 127.058 33.6311C127.1 33.7769 127.371 33.9228 127.871 34.0686C128.371 34.1936 128.725 34.2561 128.933 34.2561C128.996 34.2561 129.038 34.3811 129.058 34.6311C129.079 34.8811 129.069 35.0582 129.027 35.1624C126.944 35.0582 125.829 35.0061 125.683 35.0061C125.538 35.0061 124.402 35.0582 122.277 35.1624C122.194 35.079 122.152 34.9124 122.152 34.6624C122.152 34.3915 122.194 34.2561 122.277 34.2561C122.527 34.2561 122.892 34.1936 123.371 34.0686C123.871 33.9228 124.142 33.7769 124.183 33.6311C124.329 33.0269 124.402 32.2978 124.402 31.4436V25.5374C124.402 24.7249 124.256 24.1624 123.965 23.8499C123.756 23.5999 123.496 23.4332 123.183 23.3499C122.892 23.2457 122.642 23.1936 122.433 23.1936C122.246 23.1936 122.152 23.1728 122.152 23.1311C122.152 22.6311 122.215 22.3707 122.34 22.3499C124.548 22.0165 125.986 21.7457 126.652 21.5374L126.715 21.5061C126.756 21.5061 126.788 21.5061 126.808 21.5061C126.892 21.5061 126.944 21.5999 126.965 21.7874C126.986 21.954 126.986 22.079 126.965 22.1624C126.861 22.9957 126.808 23.7457 126.808 24.4124V30.8499ZM141.402 37.7249C141.402 36.8499 140.975 36.2561 140.121 35.9436C139.267 35.6519 137.569 35.5061 135.027 35.5061C134.986 35.5061 134.923 35.5269 134.84 35.5686C134.819 35.5894 134.725 35.6311 134.558 35.6936C134.392 35.7769 134.288 35.829 134.246 35.8499C134.204 35.8707 134.111 35.9228 133.965 36.0061C133.819 36.1103 133.715 36.1728 133.652 36.1936C133.611 36.2353 133.527 36.2978 133.402 36.3811C133.277 36.4853 133.194 36.5686 133.152 36.6311C133.111 36.7144 133.048 36.8082 132.965 36.9124C132.881 37.0165 132.819 37.1207 132.777 37.2249C132.756 37.329 132.725 37.4436 132.683 37.5686C132.663 37.7144 132.652 37.8603 132.652 38.0061C132.652 38.9019 133.111 39.6207 134.027 40.1624C134.965 40.7249 135.996 41.0061 137.121 41.0061C138.371 41.0061 139.392 40.6728 140.183 40.0061C140.996 39.3394 141.402 38.579 141.402 37.7249ZM133.402 25.8186C133.402 26.7769 133.694 27.5894 134.277 28.2561C134.881 28.9228 135.579 29.2561 136.371 29.2561C137.183 29.2561 137.85 28.9436 138.371 28.3186C138.913 27.6936 139.183 26.9436 139.183 26.0686C139.183 25.1103 138.881 24.2978 138.277 23.6311C137.694 22.9644 137.006 22.6311 136.215 22.6311C135.402 22.6311 134.725 22.9436 134.183 23.5686C133.663 24.1936 133.402 24.9436 133.402 25.8186ZM136.34 21.5686C137.111 21.5686 137.996 21.704 138.996 21.9749C139.996 22.2457 140.819 22.3811 141.465 22.3811H143.277C143.402 22.4228 143.465 22.6832 143.465 23.1624C143.465 23.454 143.402 23.5999 143.277 23.5999H141.058C140.975 23.5999 140.933 23.6311 140.933 23.6936L141.246 24.4436C141.475 24.9436 141.59 25.4436 141.59 25.9436C141.59 27.0686 141.09 28.079 140.09 28.9749C139.09 29.8707 137.861 30.3186 136.402 30.3186C135.736 30.3186 135.152 30.2769 134.652 30.1936C134.381 30.3394 134.09 30.5999 133.777 30.9749C133.486 31.3499 133.34 31.6832 133.34 31.9749C133.34 32.2665 133.423 32.5061 133.59 32.6936C133.756 32.8603 133.996 32.9853 134.308 33.0686C134.621 33.1311 134.923 33.1832 135.215 33.2249C135.506 33.2457 135.85 33.2561 136.246 33.2561C136.35 33.2561 136.423 33.2561 136.465 33.2561C139.048 33.2978 140.861 33.5686 141.902 34.0686C142.944 34.5478 143.465 35.2769 143.465 36.2561C143.465 37.8603 142.788 39.2353 141.433 40.3811C140.079 41.5478 138.34 42.1415 136.215 42.1624C134.736 42.1832 133.402 41.9019 132.215 41.3186C131.048 40.7353 130.465 39.8603 130.465 38.6936C130.465 37.4019 131.486 36.2978 133.527 35.3811C132.965 35.2978 132.444 35.0374 131.965 34.5999C131.486 34.1624 131.246 33.6311 131.246 33.0061C131.246 32.4644 131.475 31.9019 131.933 31.3186C132.413 30.7353 132.944 30.2561 133.527 29.8811C132.902 29.6519 132.319 29.1624 131.777 28.4124C131.256 27.6415 130.996 26.8186 130.996 25.9436C130.996 24.7144 131.506 23.6832 132.527 22.8499C133.569 21.9957 134.84 21.5686 136.34 21.5686ZM148.746 33.0686C149.1 33.3603 149.558 33.5061 150.121 33.5061C150.683 33.5061 151.225 33.3394 151.746 33.0061C152.267 32.6519 152.527 32.2978 152.527 31.9436V28.7249C152.361 28.8082 151.954 28.954 151.308 29.1624C150.663 29.3707 150.152 29.5582 149.777 29.7249C149.423 29.8707 149.069 30.1311 148.715 30.5061C148.381 30.8603 148.215 31.2769 148.215 31.7561C148.215 32.3186 148.392 32.7561 148.746 33.0686ZM151.683 21.4436C152.829 21.4436 153.652 21.7249 154.152 22.2874C154.652 22.829 154.902 23.7144 154.902 24.9436V32.1624C154.902 32.5999 155.017 32.9644 155.246 33.2561C155.475 33.5478 155.788 33.6936 156.183 33.6936C156.475 33.6936 156.84 33.5478 157.277 33.2561C157.361 33.2561 157.402 33.3394 157.402 33.5061C157.402 33.7769 157.35 33.9957 157.246 34.1624C156.392 34.8915 155.663 35.2561 155.058 35.2561C154.579 35.2561 154.121 35.0582 153.683 34.6624C153.246 34.2665 152.944 33.8499 152.777 33.4124C152.756 33.4124 152.673 33.4853 152.527 33.6311C152.402 33.7561 152.225 33.9124 151.996 34.0999C151.767 34.2665 151.496 34.4436 151.183 34.6311C150.892 34.8186 150.538 34.9749 150.121 35.0999C149.725 35.2249 149.319 35.2874 148.902 35.2874C147.944 35.2874 147.152 35.0374 146.527 34.5374C145.902 34.0165 145.59 33.2457 145.59 32.2249C145.59 31.7665 145.704 31.3394 145.933 30.9436C146.163 30.5269 146.433 30.1936 146.746 29.9436C147.058 29.6728 147.486 29.4019 148.027 29.1311C148.569 28.8603 149.027 28.6624 149.402 28.5374C149.798 28.3915 150.308 28.2144 150.933 28.0061C151.558 27.7978 151.996 27.6415 152.246 27.5374C152.433 27.4749 152.527 27.3186 152.527 27.0686V24.7249C152.527 24.0582 152.319 23.5478 151.902 23.1936C151.486 22.8186 150.986 22.6311 150.402 22.6311C149.777 22.6311 149.256 22.8499 148.84 23.2874C148.423 23.704 148.215 24.2561 148.215 24.9436C148.215 25.6728 147.788 26.0374 146.933 26.0374C146.35 26.0374 145.944 25.8394 145.715 25.4436C145.715 24.5478 146.371 23.6624 147.683 22.7874C148.996 21.8915 150.329 21.4436 151.683 21.4436ZM164.808 21.4436C167.1 21.4436 168.683 21.9749 169.558 23.0374C169.558 24.4332 169.173 25.1311 168.402 25.1311C168.048 25.1311 167.777 25.0582 167.59 24.9124C167.402 24.7457 167.163 24.454 166.871 24.0374C166.225 23.079 165.454 22.5999 164.558 22.5999C163.704 22.5999 162.923 23.0061 162.215 23.8186C161.527 24.6311 161.183 25.8394 161.183 27.4436C161.183 29.1103 161.59 30.4957 162.402 31.5999C163.236 32.704 164.381 33.2561 165.84 33.2561C166.277 33.2561 166.694 33.2144 167.09 33.1311C167.486 33.0478 167.819 32.954 168.09 32.8499C168.381 32.7249 168.621 32.6103 168.808 32.5061C169.017 32.3811 169.194 32.2665 169.34 32.1624L169.558 32.0061C169.683 32.0061 169.746 32.1415 169.746 32.4124C169.746 32.579 169.683 32.7665 169.558 32.9749C169.142 33.5582 168.527 34.0894 167.715 34.5686C166.902 35.0269 166.017 35.2561 165.058 35.2561C163.329 35.2561 161.84 34.6103 160.59 33.3186C159.361 32.0061 158.746 30.4124 158.746 28.5374C158.746 26.6207 159.267 24.9644 160.308 23.5686C161.35 22.1519 162.85 21.4436 164.808 21.4436ZM174.465 33.5999C174.465 33.7457 174.59 33.8186 174.84 33.8186H178.933C179.808 33.8186 180.444 33.5999 180.84 33.1624C181.256 32.7249 181.579 32.1103 181.808 31.3186C181.85 31.0894 181.933 30.9749 182.058 30.9749C182.517 30.9749 182.819 31.0999 182.965 31.3499L182.308 35.0686H171.777C171.361 34.8186 171.152 34.579 171.152 34.3499C171.152 34.2874 171.163 34.2457 171.183 34.2249L179.215 23.0686L174.558 23.0374C174.142 23.0374 173.798 23.1415 173.527 23.3499C173.256 23.5374 173.069 23.7353 172.965 23.9436C172.881 24.1519 172.788 24.4228 172.683 24.7561C172.6 25.0686 172.548 25.2561 172.527 25.3186C172.465 25.4436 172.215 25.5061 171.777 25.5061C171.548 25.5061 171.433 25.4749 171.433 25.4124C171.433 25.329 171.506 24.8394 171.652 23.9436C171.798 23.0269 171.892 22.2561 171.933 21.6311C173.163 21.7561 174.152 21.8186 174.902 21.8186H178.715C179.881 21.8186 181.152 21.7353 182.527 21.5686C182.59 21.6728 182.621 21.9228 182.621 22.3186L174.683 33.1624C174.538 33.3707 174.465 33.5165 174.465 33.5999ZM187.777 15.2249C187.777 15.7665 187.663 16.3082 187.433 16.8499C187.225 17.3707 186.965 17.8082 186.652 18.1624C186.34 18.5165 186.017 18.8394 185.683 19.1311C185.35 19.4019 185.058 19.6103 184.808 19.7561C184.579 19.8811 184.433 19.9436 184.371 19.9436C184.1 19.9436 183.892 19.7561 183.746 19.3811C184.308 19.0478 184.767 18.6624 185.121 18.2249C185.496 17.7665 185.725 17.4124 185.808 17.1624C185.913 16.8915 185.965 16.6832 185.965 16.5374C185.965 16.2665 185.746 15.9019 185.308 15.4436C184.892 14.9644 184.683 14.579 184.683 14.2874C184.683 13.9124 184.892 13.5999 185.308 13.3499C185.725 13.079 186.194 12.9436 186.715 12.9436C186.902 12.9436 187.111 12.9749 187.34 13.0374C187.631 13.454 187.777 14.1832 187.777 15.2249ZM194.152 21.4124C194.611 21.4124 195.183 21.4749 195.871 21.5999C196.579 21.704 197.069 21.7769 197.34 21.8186C197.548 22.7769 197.673 23.8394 197.715 25.0061C197.715 25.1103 197.579 25.1624 197.308 25.1624C197.017 25.1624 196.861 25.0894 196.84 24.9436C196.736 24.3603 196.433 23.8082 195.933 23.2874C195.454 22.7665 194.902 22.5061 194.277 22.5061C192.777 22.5061 192.027 23.1207 192.027 24.3499C192.027 24.6624 192.069 24.9436 192.152 25.1936C192.236 25.4228 192.392 25.6519 192.621 25.8811C192.871 26.0894 193.058 26.2457 193.183 26.3499C193.308 26.4332 193.579 26.5999 193.996 26.8499C194.433 27.079 194.704 27.2249 194.808 27.2874C194.892 27.329 195.131 27.4749 195.527 27.7249C195.944 27.954 196.236 28.1207 196.402 28.2249C196.569 28.329 196.808 28.5061 197.121 28.7561C197.454 29.0061 197.694 29.2353 197.84 29.4436C197.986 29.6311 198.121 29.8811 198.246 30.1936C198.392 30.4853 198.465 30.7874 198.465 31.0999C198.465 32.329 197.986 33.3603 197.027 34.1936C196.069 35.0061 194.944 35.4124 193.652 35.4124C193.215 35.4124 192.808 35.3811 192.433 35.3186C192.079 35.2769 191.652 35.1936 191.152 35.0686C190.652 34.9436 190.267 34.8603 189.996 34.8186C189.871 34.4853 189.746 33.9644 189.621 33.2561C189.517 32.5478 189.465 31.9853 189.465 31.5686C189.631 31.4436 189.756 31.3811 189.84 31.3811C190.152 31.3811 190.319 31.4436 190.34 31.5686C190.465 32.1936 190.85 32.8082 191.496 33.4124C192.163 33.9957 192.881 34.2874 193.652 34.2874C194.319 34.2874 194.861 34.1103 195.277 33.7561C195.715 33.3811 195.933 32.8499 195.933 32.1624C195.933 31.8082 195.861 31.4853 195.715 31.1936C195.59 30.8811 195.371 30.6103 195.058 30.3811C194.767 30.1311 194.486 29.9332 194.215 29.7874C193.965 29.6207 193.6 29.4124 193.121 29.1624C192.642 28.9124 192.288 28.7144 192.058 28.5686C190.433 27.6311 189.621 26.5165 189.621 25.2249C189.621 24.0999 190.069 23.1832 190.965 22.4749C191.881 21.7665 192.944 21.4124 194.152 21.4124ZM211.777 14.5374C212.548 14.5374 213.506 14.4853 214.652 14.3811C214.798 14.8603 216.861 20.079 220.84 30.0374C220.861 30.079 220.902 30.0999 220.965 30.0999C221.048 30.0999 221.1 30.0582 221.121 29.9749C223.163 25.1832 224.788 21.2353 225.996 18.1311C225.996 18.1311 226.413 16.8811 227.246 14.3811C228.579 14.4644 229.444 14.5061 229.84 14.5061C231.131 14.5061 232.298 14.4644 233.34 14.3811C233.402 14.5686 233.433 14.7249 233.433 14.8499C233.433 15.1415 233.381 15.2874 233.277 15.2874H233.215C232.986 15.2874 232.683 15.3603 232.308 15.5061C231.933 15.6311 231.652 15.7665 231.465 15.9124C231.215 16.0999 231.09 16.7978 231.09 18.0061C231.09 18.3394 231.183 22.5686 231.371 30.6936C231.392 31.8811 231.548 32.8394 231.84 33.5686C231.923 33.7561 232.236 33.9228 232.777 34.0686C233.319 34.1936 233.704 34.2561 233.933 34.2561C234.017 34.2561 234.058 34.4019 234.058 34.6936C234.058 34.8811 234.038 35.0374 233.996 35.1624C231.913 35.0582 230.673 35.0061 230.277 35.0061C230.173 35.0061 228.923 35.0582 226.527 35.1624C226.444 35.079 226.402 34.9124 226.402 34.6624C226.402 34.3915 226.444 34.2561 226.527 34.2561C226.736 34.2561 227.048 34.204 227.465 34.0999C227.902 33.9957 228.215 33.8915 228.402 33.7874C228.652 33.6415 228.777 33.1936 228.777 32.4436V30.7874L228.402 19.7874C228.381 19.454 228.319 19.0686 228.215 18.6311C228.131 18.1728 228.038 17.9436 227.933 17.9436C227.892 17.9436 227.84 18.0165 227.777 18.1624L221.246 33.7874C220.85 34.6832 220.465 35.1311 220.09 35.1311C220.027 35.1311 219.933 35.1103 219.808 35.0686L212.652 16.8811C212.611 18.8811 212.548 21.1728 212.465 23.7561C212.381 26.3394 212.308 28.4749 212.246 30.1624C212.183 31.829 212.152 32.6832 212.152 32.7249C212.152 33.0999 212.215 33.3707 212.34 33.5374C212.465 33.704 212.84 33.8707 213.465 34.0374C214.111 34.1832 214.538 34.2561 214.746 34.2561C214.829 34.2561 214.871 34.4124 214.871 34.7249C214.871 34.8915 214.85 35.0374 214.808 35.1624C212.725 35.0582 211.517 35.0061 211.183 35.0061C211.142 35.0061 209.923 35.0582 207.527 35.1624C207.423 35.0582 207.371 34.9019 207.371 34.6936C207.371 34.4019 207.423 34.2561 207.527 34.2561C207.819 34.2561 208.246 34.1936 208.808 34.0686C209.392 33.9228 209.777 33.7561 209.965 33.5686C210.298 33.1936 210.486 32.2874 210.527 30.8499C210.569 28.6832 210.611 26.5478 210.652 24.4436C210.715 22.3394 210.767 20.6936 210.808 19.5061C210.85 18.2978 210.871 17.5269 210.871 17.1936C210.871 16.6728 210.829 16.2561 210.746 15.9436C210.683 15.7769 210.329 15.6311 209.683 15.5061C209.038 15.3603 208.569 15.2874 208.277 15.2874C208.194 15.2874 208.152 15.1415 208.152 14.8499C208.152 14.6207 208.194 14.4644 208.277 14.3811C208.631 14.4019 209.017 14.4228 209.433 14.4436C209.871 14.4644 210.267 14.4853 210.621 14.5061C210.975 14.5269 211.361 14.5374 211.777 14.5374ZM242.59 22.6311C241.486 22.6311 240.579 23.1415 239.871 24.1624C239.183 25.1624 238.84 26.3915 238.84 27.8499C238.84 29.5582 239.277 31.0269 240.152 32.2561C241.048 33.4644 242.09 34.0686 243.277 34.0686C244.381 34.0686 245.288 33.5478 245.996 32.5061C246.704 31.4644 247.058 30.2144 247.058 28.7561C247.058 27.0686 246.611 25.6311 245.715 24.4436C244.819 23.2353 243.777 22.6311 242.59 22.6311ZM242.933 21.4124C244.808 21.4124 246.413 22.0894 247.746 23.4436C249.079 24.7978 249.746 26.4228 249.746 28.3186C249.746 30.2353 249.09 31.8811 247.777 33.2561C246.486 34.6103 244.892 35.2874 242.996 35.2874C241.1 35.2874 239.486 34.6103 238.152 33.2561C236.819 31.8811 236.152 30.2353 236.152 28.3186C236.152 26.3811 236.798 24.7457 238.09 23.4124C239.381 22.079 240.996 21.4124 242.933 21.4124ZM258.683 22.6311C257.475 22.6311 256.527 23.1728 255.84 24.2561C255.152 25.3394 254.808 26.5999 254.808 28.0374C254.808 29.5582 255.215 30.8811 256.027 32.0061C256.84 33.1103 257.965 33.6624 259.402 33.6624C260.111 33.6624 260.663 33.5061 261.058 33.1936C261.454 32.8603 261.652 32.4228 261.652 31.8811V24.4436C261.652 24.0061 261.413 23.5999 260.933 23.2249C260.475 22.829 259.725 22.6311 258.683 22.6311ZM259.09 21.3186C259.986 21.3186 260.767 21.4957 261.433 21.8499C261.579 21.8499 261.652 21.6624 261.652 21.2874V17.9124C261.652 17.204 261.59 16.5374 261.465 15.9124C261.361 15.579 260.829 15.4124 259.871 15.4124H259.59C259.465 15.4124 259.402 15.2978 259.402 15.0686C259.402 14.7353 259.465 14.5686 259.59 14.5686C260.215 14.5061 260.788 14.4228 261.308 14.3186C261.85 14.2144 262.267 14.1103 262.558 14.0061C262.871 13.9019 263.131 13.8082 263.34 13.7249C263.548 13.6207 263.704 13.5374 263.808 13.4749L263.933 13.3811H263.996C264.079 13.3811 264.163 13.4436 264.246 13.5686C264.329 13.6728 264.381 13.7769 264.402 13.8811C264.173 14.5478 264.058 15.454 264.058 16.5999V30.6624C264.058 31.6624 264.121 32.454 264.246 33.0374C264.288 33.1832 264.402 33.2978 264.59 33.3811C264.777 33.4644 264.965 33.5165 265.152 33.5374C265.361 33.5582 265.558 33.5686 265.746 33.5686L266.027 33.5999C266.09 33.6207 266.121 33.7457 266.121 33.9749C266.121 34.2874 266.058 34.4436 265.933 34.4436C265.621 34.4644 265.267 34.5061 264.871 34.5686C264.496 34.6311 264.131 34.704 263.777 34.7874C263.444 34.8499 263.131 34.9228 262.84 35.0061C262.548 35.0686 262.308 35.1311 262.121 35.1936L261.84 35.2561C261.715 35.2561 261.652 35.079 261.652 34.7249V34.3499C261.652 34.2249 261.611 34.1832 261.527 34.2249C260.361 34.8707 259.256 35.1936 258.215 35.1936C256.486 35.1936 255.038 34.579 253.871 33.3499C252.704 32.1207 252.121 30.6519 252.121 28.9436C252.121 26.9228 252.829 25.1519 254.246 23.6311C255.683 22.0894 257.298 21.3186 259.09 21.3186ZM270.84 33.0686C271.194 33.3603 271.652 33.5061 272.215 33.5061C272.777 33.5061 273.319 33.3394 273.84 33.0061C274.361 32.6519 274.621 32.2978 274.621 31.9436V28.7249C274.454 28.8082 274.048 28.954 273.402 29.1624C272.756 29.3707 272.246 29.5582 271.871 29.7249C271.517 29.8707 271.163 30.1311 270.808 30.5061C270.475 30.8603 270.308 31.2769 270.308 31.7561C270.308 32.3186 270.486 32.7561 270.84 33.0686ZM273.777 21.4436C274.923 21.4436 275.746 21.7249 276.246 22.2874C276.746 22.829 276.996 23.7144 276.996 24.9436V32.1624C276.996 32.5999 277.111 32.9644 277.34 33.2561C277.569 33.5478 277.881 33.6936 278.277 33.6936C278.569 33.6936 278.933 33.5478 279.371 33.2561C279.454 33.2561 279.496 33.3394 279.496 33.5061C279.496 33.7769 279.444 33.9957 279.34 34.1624C278.486 34.8915 277.756 35.2561 277.152 35.2561C276.673 35.2561 276.215 35.0582 275.777 34.6624C275.34 34.2665 275.038 33.8499 274.871 33.4124C274.85 33.4124 274.767 33.4853 274.621 33.6311C274.496 33.7561 274.319 33.9124 274.09 34.0999C273.861 34.2665 273.59 34.4436 273.277 34.6311C272.986 34.8186 272.631 34.9749 272.215 35.0999C271.819 35.2249 271.413 35.2874 270.996 35.2874C270.038 35.2874 269.246 35.0374 268.621 34.5374C267.996 34.0165 267.683 33.2457 267.683 32.2249C267.683 31.7665 267.798 31.3394 268.027 30.9436C268.256 30.5269 268.527 30.1936 268.84 29.9436C269.152 29.6728 269.579 29.4019 270.121 29.1311C270.663 28.8603 271.121 28.6624 271.496 28.5374C271.892 28.3915 272.402 28.2144 273.027 28.0061C273.652 27.7978 274.09 27.6415 274.34 27.5374C274.527 27.4749 274.621 27.3186 274.621 27.0686V24.7249C274.621 24.0582 274.413 23.5478 273.996 23.1936C273.579 22.8186 273.079 22.6311 272.496 22.6311C271.871 22.6311 271.35 22.8499 270.933 23.2874C270.517 23.704 270.308 24.2561 270.308 24.9436C270.308 25.6728 269.881 26.0374 269.027 26.0374C268.444 26.0374 268.038 25.8394 267.808 25.4436C267.808 24.5478 268.465 23.6624 269.777 22.7874C271.09 21.8915 272.423 21.4436 273.777 21.4436ZM285.652 21.4124C286.111 21.4124 286.683 21.4749 287.371 21.5999C288.079 21.704 288.569 21.7769 288.84 21.8186C289.048 22.7769 289.173 23.8394 289.215 25.0061C289.215 25.1103 289.079 25.1624 288.808 25.1624C288.517 25.1624 288.361 25.0894 288.34 24.9436C288.236 24.3603 287.933 23.8082 287.433 23.2874C286.954 22.7665 286.402 22.5061 285.777 22.5061C284.277 22.5061 283.527 23.1207 283.527 24.3499C283.527 24.6624 283.569 24.9436 283.652 25.1936C283.736 25.4228 283.892 25.6519 284.121 25.8811C284.371 26.0894 284.558 26.2457 284.683 26.3499C284.808 26.4332 285.079 26.5999 285.496 26.8499C285.933 27.079 286.204 27.2249 286.308 27.2874C286.392 27.329 286.631 27.4749 287.027 27.7249C287.444 27.954 287.736 28.1207 287.902 28.2249C288.069 28.329 288.308 28.5061 288.621 28.7561C288.954 29.0061 289.194 29.2353 289.34 29.4436C289.486 29.6311 289.621 29.8811 289.746 30.1936C289.892 30.4853 289.965 30.7874 289.965 31.0999C289.965 32.329 289.486 33.3603 288.527 34.1936C287.569 35.0061 286.444 35.4124 285.152 35.4124C284.715 35.4124 284.308 35.3811 283.933 35.3186C283.579 35.2769 283.152 35.1936 282.652 35.0686C282.152 34.9436 281.767 34.8603 281.496 34.8186C281.371 34.4853 281.246 33.9644 281.121 33.2561C281.017 32.5478 280.965 31.9853 280.965 31.5686C281.131 31.4436 281.256 31.3811 281.34 31.3811C281.652 31.3811 281.819 31.4436 281.84 31.5686C281.965 32.1936 282.35 32.8082 282.996 33.4124C283.663 33.9957 284.381 34.2874 285.152 34.2874C285.819 34.2874 286.361 34.1103 286.777 33.7561C287.215 33.3811 287.433 32.8499 287.433 32.1624C287.433 31.8082 287.361 31.4853 287.215 31.1936C287.09 30.8811 286.871 30.6103 286.558 30.3811C286.267 30.1311 285.986 29.9332 285.715 29.7874C285.465 29.6207 285.1 29.4124 284.621 29.1624C284.142 28.9124 283.788 28.7144 283.558 28.5686C281.933 27.6311 281.121 26.5165 281.121 25.2249C281.121 24.0999 281.569 23.1832 282.465 22.4749C283.381 21.7665 284.444 21.4124 285.652 21.4124Z" fill="#F4F4F4"/>
</svg>
