<svg width="198" height="31" viewBox="0 0 198 31" fill="none" xmlns="http://www.w3.org/2000/svg">
<path d="M5.30511 2.5835C6.07595 2.5835 7.03428 2.53141 8.18011 2.42725C8.32595 2.90641 10.3884 8.12516 14.3676 18.0835C14.3884 18.1252 14.4301 18.146 14.4926 18.146C14.5759 18.146 14.628 18.1043 14.6489 18.021C16.6905 13.2293 18.3155 9.28141 19.5239 6.17725C19.5239 6.17725 19.9405 4.92725 20.7739 2.42725C22.1072 2.51058 22.9718 2.55225 23.3676 2.55225C24.6593 2.55225 25.8259 2.51058 26.8676 2.42725C26.9301 2.61475 26.9614 2.771 26.9614 2.896C26.9614 3.18766 26.9093 3.3335 26.8051 3.3335H26.7426C26.5134 3.3335 26.2114 3.40641 25.8364 3.55225C25.4614 3.67725 25.1801 3.81266 24.9926 3.9585C24.7426 4.146 24.6176 4.84391 24.6176 6.05225C24.6176 6.38558 24.7114 10.6147 24.8989 18.7397C24.9197 19.9272 25.0759 20.8856 25.3676 21.6147C25.4509 21.8022 25.7634 21.9689 26.3051 22.1147C26.8468 22.2397 27.2322 22.3022 27.4614 22.3022C27.5447 22.3022 27.5864 22.4481 27.5864 22.7397C27.5864 22.9272 27.5655 23.0835 27.5239 23.2085C25.4405 23.1043 24.2009 23.0522 23.8051 23.0522C23.7009 23.0522 22.4509 23.1043 20.0551 23.2085C19.9718 23.1252 19.9301 22.9585 19.9301 22.7085C19.9301 22.4377 19.9718 22.3022 20.0551 22.3022C20.2634 22.3022 20.5759 22.2502 20.9926 22.146C21.4301 22.0418 21.7426 21.9377 21.9301 21.8335C22.1801 21.6877 22.3051 21.2397 22.3051 20.4897V18.8335L21.9301 7.8335C21.9093 7.50016 21.8468 7.11475 21.7426 6.67725C21.6593 6.21891 21.5655 5.98975 21.4614 5.98975C21.4197 5.98975 21.3676 6.06266 21.3051 6.2085L14.7739 21.8335C14.378 22.7293 13.9926 23.1772 13.6176 23.1772C13.5551 23.1772 13.4614 23.1564 13.3364 23.1147L6.18011 4.92725C6.13845 6.92725 6.07595 9.21891 5.99261 11.8022C5.90928 14.3856 5.83636 16.521 5.77386 18.2085C5.71136 19.8752 5.68011 20.7293 5.68011 20.771C5.68011 21.146 5.74261 21.4168 5.86761 21.5835C5.99261 21.7502 6.36761 21.9168 6.99261 22.0835C7.63845 22.2293 8.06553 22.3022 8.27386 22.3022C8.3572 22.3022 8.39886 22.4585 8.39886 22.771C8.39886 22.9377 8.37803 23.0835 8.33636 23.2085C6.25303 23.1043 5.0447 23.0522 4.71136 23.0522C4.6697 23.0522 3.45095 23.1043 1.05511 23.2085C0.950948 23.1043 0.898865 22.9481 0.898865 22.7397C0.898865 22.4481 0.950948 22.3022 1.05511 22.3022C1.34678 22.3022 1.77386 22.2397 2.33636 22.1147C2.9197 21.9689 3.30511 21.8022 3.49261 21.6147C3.82595 21.2397 4.01345 20.3335 4.05511 18.896C4.09678 16.7293 4.13845 14.5939 4.18011 12.4897C4.24261 10.3856 4.2947 8.73975 4.33636 7.55225C4.37803 6.34391 4.39886 5.57308 4.39886 5.23975C4.39886 4.71891 4.3572 4.30225 4.27386 3.98975C4.21136 3.82308 3.8572 3.67725 3.21136 3.55225C2.56553 3.40641 2.09678 3.3335 1.80511 3.3335C1.72178 3.3335 1.68011 3.18766 1.68011 2.896C1.68011 2.66683 1.72178 2.51058 1.80511 2.42725C2.15928 2.44808 2.5447 2.46891 2.96136 2.48975C3.39886 2.51058 3.7947 2.53141 4.14886 2.55225C4.50303 2.57308 4.88845 2.5835 5.30511 2.5835ZM31.6176 5.7085C31.3259 5.396 31.1801 5.021 31.1801 4.5835C31.1801 4.146 31.3259 3.78141 31.6176 3.48975C31.9301 3.17725 32.3051 3.021 32.7426 3.021C33.1801 3.021 33.5447 3.17725 33.8364 3.48975C34.1489 3.78141 34.3051 4.146 34.3051 4.5835C34.3051 5.021 34.1489 5.396 33.8364 5.7085C33.5447 6.00016 33.1801 6.146 32.7426 6.146C32.3051 6.146 31.9301 6.00016 31.6176 5.7085ZM34.1801 18.896C34.1801 20.1043 34.2634 21.0314 34.4301 21.6772C34.4718 21.8231 34.7426 21.9689 35.2426 22.1147C35.7426 22.2397 36.0968 22.3022 36.3051 22.3022C36.3676 22.3022 36.4093 22.4272 36.4301 22.6772C36.4509 22.9272 36.4405 23.1043 36.3989 23.2085C34.3155 23.1043 33.2009 23.0522 33.0551 23.0522C32.9093 23.0522 31.7739 23.1043 29.6489 23.2085C29.5655 23.1252 29.5239 22.9585 29.5239 22.7085C29.5239 22.4377 29.5655 22.3022 29.6489 22.3022C29.8989 22.3022 30.2634 22.2397 30.7426 22.1147C31.2426 21.9689 31.5134 21.8231 31.5551 21.6772C31.7009 21.0731 31.7739 20.3439 31.7739 19.4897V13.5835C31.7739 12.771 31.628 12.2085 31.3364 11.896C31.128 11.646 30.8676 11.4793 30.5551 11.396C30.2634 11.2918 30.0134 11.2397 29.8051 11.2397C29.6176 11.2397 29.5239 11.2189 29.5239 11.1772C29.5239 10.6772 29.5864 10.4168 29.7114 10.396C31.9197 10.0627 33.3572 9.79183 34.0239 9.5835L34.0864 9.55225C34.128 9.55225 34.1593 9.55225 34.1801 9.55225C34.2634 9.55225 34.3155 9.646 34.3364 9.8335C34.3572 10.0002 34.3572 10.1252 34.3364 10.2085C34.2322 11.0418 34.1801 11.7918 34.1801 12.4585V18.896ZM48.7739 25.771C48.7739 24.896 48.3468 24.3022 47.4926 23.9897C46.6384 23.6981 44.9405 23.5522 42.3989 23.5522C42.3572 23.5522 42.2947 23.5731 42.2114 23.6147C42.1905 23.6356 42.0968 23.6772 41.9301 23.7397C41.7634 23.8231 41.6593 23.8752 41.6176 23.896C41.5759 23.9168 41.4822 23.9689 41.3364 24.0522C41.1905 24.1564 41.0864 24.2189 41.0239 24.2397C40.9822 24.2814 40.8989 24.3439 40.7739 24.4272C40.6489 24.5314 40.5655 24.6147 40.5239 24.6772C40.4822 24.7606 40.4197 24.8543 40.3364 24.9585C40.253 25.0627 40.1905 25.1668 40.1489 25.271C40.128 25.3752 40.0968 25.4897 40.0551 25.6147C40.0343 25.7606 40.0239 25.9064 40.0239 26.0522C40.0239 26.9481 40.4822 27.6668 41.3989 28.2085C42.3364 28.771 43.3676 29.0522 44.4926 29.0522C45.7426 29.0522 46.7634 28.7189 47.5551 28.0522C48.3676 27.3856 48.7739 26.6252 48.7739 25.771ZM40.7739 13.8647C40.7739 14.8231 41.0655 15.6356 41.6489 16.3022C42.253 16.9689 42.9509 17.3022 43.7426 17.3022C44.5551 17.3022 45.2218 16.9897 45.7426 16.3647C46.2843 15.7397 46.5551 14.9897 46.5551 14.1147C46.5551 13.1564 46.253 12.3439 45.6489 11.6772C45.0655 11.0106 44.378 10.6772 43.5864 10.6772C42.7739 10.6772 42.0968 10.9897 41.5551 11.6147C41.0343 12.2397 40.7739 12.9897 40.7739 13.8647ZM43.7114 9.61475C44.4822 9.61475 45.3676 9.75016 46.3676 10.021C47.3676 10.2918 48.1905 10.4272 48.8364 10.4272H50.6489C50.7739 10.4689 50.8364 10.7293 50.8364 11.2085C50.8364 11.5002 50.7739 11.646 50.6489 11.646H48.4301C48.3468 11.646 48.3051 11.6772 48.3051 11.7397L48.6176 12.4897C48.8468 12.9897 48.9614 13.4897 48.9614 13.9897C48.9614 15.1147 48.4614 16.1252 47.4614 17.021C46.4614 17.9168 45.2322 18.3647 43.7739 18.3647C43.1072 18.3647 42.5239 18.3231 42.0239 18.2397C41.753 18.3856 41.4614 18.646 41.1489 19.021C40.8572 19.396 40.7114 19.7293 40.7114 20.021C40.7114 20.3127 40.7947 20.5522 40.9614 20.7397C41.128 20.9064 41.3676 21.0314 41.6801 21.1147C41.9926 21.1772 42.2947 21.2293 42.5864 21.271C42.878 21.2918 43.2218 21.3022 43.6176 21.3022C43.7218 21.3022 43.7947 21.3022 43.8364 21.3022C46.4197 21.3439 48.2322 21.6147 49.2739 22.1147C50.3155 22.5939 50.8364 23.3231 50.8364 24.3022C50.8364 25.9064 50.1593 27.2814 48.8051 28.4272C47.4509 29.5939 45.7114 30.1877 43.5864 30.2085C42.1072 30.2293 40.7739 29.9481 39.5864 29.3647C38.4197 28.7814 37.8364 27.9064 37.8364 26.7397C37.8364 25.4481 38.8572 24.3439 40.8989 23.4272C40.3364 23.3439 39.8155 23.0835 39.3364 22.646C38.8572 22.2085 38.6176 21.6772 38.6176 21.0522C38.6176 20.5106 38.8468 19.9481 39.3051 19.3647C39.7843 18.7814 40.3155 18.3022 40.8989 17.9272C40.2739 17.6981 39.6905 17.2085 39.1489 16.4585C38.628 15.6877 38.3676 14.8647 38.3676 13.9897C38.3676 12.7606 38.878 11.7293 39.8989 10.896C40.9405 10.0418 42.2114 9.61475 43.7114 9.61475ZM56.1176 21.1147C56.4718 21.4064 56.9301 21.5522 57.4926 21.5522C58.0551 21.5522 58.5968 21.3856 59.1176 21.0522C59.6384 20.6981 59.8989 20.3439 59.8989 19.9897V16.771C59.7322 16.8543 59.3259 17.0002 58.6801 17.2085C58.0343 17.4168 57.5239 17.6043 57.1489 17.771C56.7947 17.9168 56.4405 18.1772 56.0864 18.5522C55.753 18.9064 55.5864 19.3231 55.5864 19.8022C55.5864 20.3647 55.7634 20.8022 56.1176 21.1147ZM59.0551 9.48975C60.2009 9.48975 61.0239 9.771 61.5239 10.3335C62.0239 10.8752 62.2739 11.7606 62.2739 12.9897V20.2085C62.2739 20.646 62.3884 21.0106 62.6176 21.3022C62.8468 21.5939 63.1593 21.7397 63.5551 21.7397C63.8468 21.7397 64.2114 21.5939 64.6489 21.3022C64.7322 21.3022 64.7739 21.3856 64.7739 21.5522C64.7739 21.8231 64.7218 22.0418 64.6176 22.2085C63.7634 22.9377 63.0343 23.3022 62.4301 23.3022C61.9509 23.3022 61.4926 23.1043 61.0551 22.7085C60.6176 22.3127 60.3155 21.896 60.1489 21.4585C60.128 21.4585 60.0447 21.5314 59.8989 21.6772C59.7739 21.8022 59.5968 21.9585 59.3676 22.146C59.1384 22.3127 58.8676 22.4897 58.5551 22.6772C58.2634 22.8647 57.9093 23.021 57.4926 23.146C57.0968 23.271 56.6905 23.3335 56.2739 23.3335C55.3155 23.3335 54.5239 23.0835 53.8989 22.5835C53.2739 22.0627 52.9614 21.2918 52.9614 20.271C52.9614 19.8127 53.0759 19.3856 53.3051 18.9897C53.5343 18.5731 53.8051 18.2397 54.1176 17.9897C54.4301 17.7189 54.8572 17.4481 55.3989 17.1772C55.9405 16.9064 56.3989 16.7085 56.7739 16.5835C57.1697 16.4377 57.6801 16.2606 58.3051 16.0522C58.9301 15.8439 59.3676 15.6877 59.6176 15.5835C59.8051 15.521 59.8989 15.3647 59.8989 15.1147V12.771C59.8989 12.1043 59.6905 11.5939 59.2739 11.2397C58.8572 10.8647 58.3572 10.6772 57.7739 10.6772C57.1489 10.6772 56.628 10.896 56.2114 11.3335C55.7947 11.7502 55.5864 12.3022 55.5864 12.9897C55.5864 13.7189 55.1593 14.0835 54.3051 14.0835C53.7218 14.0835 53.3155 13.8856 53.0864 13.4897C53.0864 12.5939 53.7426 11.7085 55.0551 10.8335C56.3676 9.93766 57.7009 9.48975 59.0551 9.48975ZM72.1801 9.48975C74.4718 9.48975 76.0551 10.021 76.9301 11.0835C76.9301 12.4793 76.5447 13.1772 75.7739 13.1772C75.4197 13.1772 75.1489 13.1043 74.9614 12.9585C74.7739 12.7918 74.5343 12.5002 74.2426 12.0835C73.5968 11.1252 72.8259 10.646 71.9301 10.646C71.0759 10.646 70.2947 11.0522 69.5864 11.8647C68.8989 12.6772 68.5551 13.8856 68.5551 15.4897C68.5551 17.1564 68.9614 18.5418 69.7739 19.646C70.6072 20.7502 71.753 21.3022 73.2114 21.3022C73.6489 21.3022 74.0655 21.2606 74.4614 21.1772C74.8572 21.0939 75.1905 21.0002 75.4614 20.896C75.753 20.771 75.9926 20.6564 76.1801 20.5522C76.3884 20.4272 76.5655 20.3127 76.7114 20.2085L76.9301 20.0522C77.0551 20.0522 77.1176 20.1877 77.1176 20.4585C77.1176 20.6252 77.0551 20.8127 76.9301 21.021C76.5134 21.6043 75.8989 22.1356 75.0864 22.6147C74.2739 23.0731 73.3884 23.3022 72.4301 23.3022C70.7009 23.3022 69.2114 22.6564 67.9614 21.3647C66.7322 20.0522 66.1176 18.4585 66.1176 16.5835C66.1176 14.6668 66.6384 13.0106 67.6801 11.6147C68.7218 10.1981 70.2218 9.48975 72.1801 9.48975ZM81.8364 21.646C81.8364 21.7918 81.9614 21.8647 82.2114 21.8647H86.3051C87.1801 21.8647 87.8155 21.646 88.2114 21.2085C88.628 20.771 88.9509 20.1564 89.1801 19.3647C89.2218 19.1356 89.3051 19.021 89.4301 19.021C89.8884 19.021 90.1905 19.146 90.3364 19.396L89.6801 23.1147H79.1489C78.7322 22.8647 78.5239 22.6252 78.5239 22.396C78.5239 22.3335 78.5343 22.2918 78.5551 22.271L86.5864 11.1147L81.9301 11.0835C81.5134 11.0835 81.1697 11.1877 80.8989 11.396C80.628 11.5835 80.4405 11.7814 80.3364 11.9897C80.253 12.1981 80.1593 12.4689 80.0551 12.8022C79.9718 13.1147 79.9197 13.3022 79.8989 13.3647C79.8364 13.4897 79.5864 13.5522 79.1489 13.5522C78.9197 13.5522 78.8051 13.521 78.8051 13.4585C78.8051 13.3752 78.878 12.8856 79.0239 11.9897C79.1697 11.0731 79.2634 10.3022 79.3051 9.67725C80.5343 9.80225 81.5239 9.86475 82.2739 9.86475H86.0864C87.253 9.86475 88.5239 9.78141 89.8989 9.61475C89.9614 9.71891 89.9926 9.96891 89.9926 10.3647L82.0551 21.2085C81.9093 21.4168 81.8364 21.5627 81.8364 21.646ZM95.1489 3.271C95.1489 3.81266 95.0343 4.35433 94.8051 4.896C94.5968 5.41683 94.3364 5.85433 94.0239 6.2085C93.7114 6.56266 93.3884 6.88558 93.0551 7.17725C92.7218 7.44808 92.4301 7.65641 92.1801 7.80225C91.9509 7.92725 91.8051 7.98975 91.7426 7.98975C91.4718 7.98975 91.2634 7.80225 91.1176 7.42725C91.6801 7.09391 92.1384 6.7085 92.4926 6.271C92.8676 5.81266 93.0968 5.4585 93.1801 5.2085C93.2843 4.93766 93.3364 4.72933 93.3364 4.5835C93.3364 4.31266 93.1176 3.94808 92.6801 3.48975C92.2634 3.01058 92.0551 2.62516 92.0551 2.3335C92.0551 1.9585 92.2634 1.646 92.6801 1.396C93.0968 1.12516 93.5655 0.989746 94.0864 0.989746C94.2739 0.989746 94.4822 1.021 94.7114 1.0835C95.003 1.50016 95.1489 2.22933 95.1489 3.271ZM101.524 9.4585C101.982 9.4585 102.555 9.521 103.243 9.646C103.951 9.75016 104.441 9.82308 104.711 9.86475C104.92 10.8231 105.045 11.8856 105.086 13.0522C105.086 13.1564 104.951 13.2085 104.68 13.2085C104.388 13.2085 104.232 13.1356 104.211 12.9897C104.107 12.4064 103.805 11.8543 103.305 11.3335C102.826 10.8127 102.274 10.5522 101.649 10.5522C100.149 10.5522 99.3989 11.1668 99.3989 12.396C99.3989 12.7085 99.4405 12.9897 99.5239 13.2397C99.6072 13.4689 99.7634 13.6981 99.9926 13.9272C100.243 14.1356 100.43 14.2918 100.555 14.396C100.68 14.4793 100.951 14.646 101.368 14.896C101.805 15.1252 102.076 15.271 102.18 15.3335C102.263 15.3752 102.503 15.521 102.899 15.771C103.316 16.0002 103.607 16.1668 103.774 16.271C103.941 16.3752 104.18 16.5522 104.493 16.8022C104.826 17.0522 105.066 17.2814 105.211 17.4897C105.357 17.6772 105.493 17.9272 105.618 18.2397C105.763 18.5314 105.836 18.8335 105.836 19.146C105.836 20.3752 105.357 21.4064 104.399 22.2397C103.441 23.0522 102.316 23.4585 101.024 23.4585C100.586 23.4585 100.18 23.4272 99.8051 23.3647C99.4509 23.3231 99.0239 23.2397 98.5239 23.1147C98.0239 22.9897 97.6384 22.9064 97.3676 22.8647C97.2426 22.5314 97.1176 22.0106 96.9926 21.3022C96.8884 20.5939 96.8364 20.0314 96.8364 19.6147C97.003 19.4897 97.128 19.4272 97.2114 19.4272C97.5239 19.4272 97.6905 19.4897 97.7114 19.6147C97.8364 20.2397 98.2218 20.8543 98.8676 21.4585C99.5343 22.0418 100.253 22.3335 101.024 22.3335C101.691 22.3335 102.232 22.1564 102.649 21.8022C103.086 21.4272 103.305 20.896 103.305 20.2085C103.305 19.8543 103.232 19.5314 103.086 19.2397C102.961 18.9272 102.743 18.6564 102.43 18.4272C102.138 18.1772 101.857 17.9793 101.586 17.8335C101.336 17.6668 100.972 17.4585 100.493 17.2085C100.013 16.9585 99.6593 16.7606 99.4301 16.6147C97.8051 15.6772 96.9926 14.5627 96.9926 13.271C96.9926 12.146 97.4405 11.2293 98.3364 10.521C99.253 9.81266 100.316 9.4585 101.524 9.4585ZM119.149 2.5835C119.92 2.5835 120.878 2.53141 122.024 2.42725C122.17 2.90641 124.232 8.12516 128.211 18.0835C128.232 18.1252 128.274 18.146 128.336 18.146C128.42 18.146 128.472 18.1043 128.493 18.021C130.534 13.2293 132.159 9.28141 133.368 6.17725C133.368 6.17725 133.784 4.92725 134.618 2.42725C135.951 2.51058 136.816 2.55225 137.211 2.55225C138.503 2.55225 139.67 2.51058 140.711 2.42725C140.774 2.61475 140.805 2.771 140.805 2.896C140.805 3.18766 140.753 3.3335 140.649 3.3335H140.586C140.357 3.3335 140.055 3.40641 139.68 3.55225C139.305 3.67725 139.024 3.81266 138.836 3.9585C138.586 4.146 138.461 4.84391 138.461 6.05225C138.461 6.38558 138.555 10.6147 138.743 18.7397C138.763 19.9272 138.92 20.8856 139.211 21.6147C139.295 21.8022 139.607 21.9689 140.149 22.1147C140.691 22.2397 141.076 22.3022 141.305 22.3022C141.388 22.3022 141.43 22.4481 141.43 22.7397C141.43 22.9272 141.409 23.0835 141.368 23.2085C139.284 23.1043 138.045 23.0522 137.649 23.0522C137.545 23.0522 136.295 23.1043 133.899 23.2085C133.816 23.1252 133.774 22.9585 133.774 22.7085C133.774 22.4377 133.816 22.3022 133.899 22.3022C134.107 22.3022 134.42 22.2502 134.836 22.146C135.274 22.0418 135.586 21.9377 135.774 21.8335C136.024 21.6877 136.149 21.2397 136.149 20.4897V18.8335L135.774 7.8335C135.753 7.50016 135.691 7.11475 135.586 6.67725C135.503 6.21891 135.409 5.98975 135.305 5.98975C135.263 5.98975 135.211 6.06266 135.149 6.2085L128.618 21.8335C128.222 22.7293 127.836 23.1772 127.461 23.1772C127.399 23.1772 127.305 23.1564 127.18 23.1147L120.024 4.92725C119.982 6.92725 119.92 9.21891 119.836 11.8022C119.753 14.3856 119.68 16.521 119.618 18.2085C119.555 19.8752 119.524 20.7293 119.524 20.771C119.524 21.146 119.586 21.4168 119.711 21.5835C119.836 21.7502 120.211 21.9168 120.836 22.0835C121.482 22.2293 121.909 22.3022 122.118 22.3022C122.201 22.3022 122.243 22.4585 122.243 22.771C122.243 22.9377 122.222 23.0835 122.18 23.2085C120.097 23.1043 118.888 23.0522 118.555 23.0522C118.513 23.0522 117.295 23.1043 114.899 23.2085C114.795 23.1043 114.743 22.9481 114.743 22.7397C114.743 22.4481 114.795 22.3022 114.899 22.3022C115.191 22.3022 115.618 22.2397 116.18 22.1147C116.763 21.9689 117.149 21.8022 117.336 21.6147C117.67 21.2397 117.857 20.3335 117.899 18.896C117.941 16.7293 117.982 14.5939 118.024 12.4897C118.086 10.3856 118.138 8.73975 118.18 7.55225C118.222 6.34391 118.243 5.57308 118.243 5.23975C118.243 4.71891 118.201 4.30225 118.118 3.98975C118.055 3.82308 117.701 3.67725 117.055 3.55225C116.409 3.40641 115.941 3.3335 115.649 3.3335C115.566 3.3335 115.524 3.18766 115.524 2.896C115.524 2.66683 115.566 2.51058 115.649 2.42725C116.003 2.44808 116.388 2.46891 116.805 2.48975C117.243 2.51058 117.638 2.53141 117.993 2.55225C118.347 2.57308 118.732 2.5835 119.149 2.5835ZM149.961 10.6772C148.857 10.6772 147.951 11.1877 147.243 12.2085C146.555 13.2085 146.211 14.4377 146.211 15.896C146.211 17.6043 146.649 19.0731 147.524 20.3022C148.42 21.5106 149.461 22.1147 150.649 22.1147C151.753 22.1147 152.659 21.5939 153.368 20.5522C154.076 19.5106 154.43 18.2606 154.43 16.8022C154.43 15.1147 153.982 13.6772 153.086 12.4897C152.191 11.2814 151.149 10.6772 149.961 10.6772ZM150.305 9.4585C152.18 9.4585 153.784 10.1356 155.118 11.4897C156.451 12.8439 157.118 14.4689 157.118 16.3647C157.118 18.2814 156.461 19.9272 155.149 21.3022C153.857 22.6564 152.263 23.3335 150.368 23.3335C148.472 23.3335 146.857 22.6564 145.524 21.3022C144.191 19.9272 143.524 18.2814 143.524 16.3647C143.524 14.4272 144.17 12.7918 145.461 11.4585C146.753 10.1252 148.368 9.4585 150.305 9.4585ZM166.055 10.6772C164.847 10.6772 163.899 11.2189 163.211 12.3022C162.524 13.3856 162.18 14.646 162.18 16.0835C162.18 17.6043 162.586 18.9272 163.399 20.0522C164.211 21.1564 165.336 21.7085 166.774 21.7085C167.482 21.7085 168.034 21.5522 168.43 21.2397C168.826 20.9064 169.024 20.4689 169.024 19.9272V12.4897C169.024 12.0522 168.784 11.646 168.305 11.271C167.847 10.8752 167.097 10.6772 166.055 10.6772ZM166.461 9.36475C167.357 9.36475 168.138 9.54183 168.805 9.896C168.951 9.896 169.024 9.7085 169.024 9.3335V5.9585C169.024 5.25016 168.961 4.5835 168.836 3.9585C168.732 3.62516 168.201 3.4585 167.243 3.4585H166.961C166.836 3.4585 166.774 3.34391 166.774 3.11475C166.774 2.78141 166.836 2.61475 166.961 2.61475C167.586 2.55225 168.159 2.46891 168.68 2.36475C169.222 2.26058 169.638 2.15641 169.93 2.05225C170.243 1.94808 170.503 1.85433 170.711 1.771C170.92 1.66683 171.076 1.5835 171.18 1.521L171.305 1.42725H171.368C171.451 1.42725 171.534 1.48975 171.618 1.61475C171.701 1.71891 171.753 1.82308 171.774 1.92725C171.545 2.59391 171.43 3.50016 171.43 4.646V18.7085C171.43 19.7085 171.493 20.5002 171.618 21.0835C171.659 21.2293 171.774 21.3439 171.961 21.4272C172.149 21.5106 172.336 21.5627 172.524 21.5835C172.732 21.6043 172.93 21.6147 173.118 21.6147L173.399 21.646C173.461 21.6668 173.493 21.7918 173.493 22.021C173.493 22.3335 173.43 22.4897 173.305 22.4897C172.993 22.5106 172.638 22.5522 172.243 22.6147C171.868 22.6772 171.503 22.7502 171.149 22.8335C170.816 22.896 170.503 22.9689 170.211 23.0522C169.92 23.1147 169.68 23.1772 169.493 23.2397L169.211 23.3022C169.086 23.3022 169.024 23.1252 169.024 22.771V22.396C169.024 22.271 168.982 22.2293 168.899 22.271C167.732 22.9168 166.628 23.2397 165.586 23.2397C163.857 23.2397 162.409 22.6252 161.243 21.396C160.076 20.1668 159.493 18.6981 159.493 16.9897C159.493 14.9689 160.201 13.1981 161.618 11.6772C163.055 10.1356 164.67 9.36475 166.461 9.36475ZM178.211 21.1147C178.566 21.4064 179.024 21.5522 179.586 21.5522C180.149 21.5522 180.691 21.3856 181.211 21.0522C181.732 20.6981 181.993 20.3439 181.993 19.9897V16.771C181.826 16.8543 181.42 17.0002 180.774 17.2085C180.128 17.4168 179.618 17.6043 179.243 17.771C178.888 17.9168 178.534 18.1772 178.18 18.5522C177.847 18.9064 177.68 19.3231 177.68 19.8022C177.68 20.3647 177.857 20.8022 178.211 21.1147ZM181.149 9.48975C182.295 9.48975 183.118 9.771 183.618 10.3335C184.118 10.8752 184.368 11.7606 184.368 12.9897V20.2085C184.368 20.646 184.482 21.0106 184.711 21.3022C184.941 21.5939 185.253 21.7397 185.649 21.7397C185.941 21.7397 186.305 21.5939 186.743 21.3022C186.826 21.3022 186.868 21.3856 186.868 21.5522C186.868 21.8231 186.816 22.0418 186.711 22.2085C185.857 22.9377 185.128 23.3022 184.524 23.3022C184.045 23.3022 183.586 23.1043 183.149 22.7085C182.711 22.3127 182.409 21.896 182.243 21.4585C182.222 21.4585 182.138 21.5314 181.993 21.6772C181.868 21.8022 181.691 21.9585 181.461 22.146C181.232 22.3127 180.961 22.4897 180.649 22.6772C180.357 22.8647 180.003 23.021 179.586 23.146C179.191 23.271 178.784 23.3335 178.368 23.3335C177.409 23.3335 176.618 23.0835 175.993 22.5835C175.368 22.0627 175.055 21.2918 175.055 20.271C175.055 19.8127 175.17 19.3856 175.399 18.9897C175.628 18.5731 175.899 18.2397 176.211 17.9897C176.524 17.7189 176.951 17.4481 177.493 17.1772C178.034 16.9064 178.493 16.7085 178.868 16.5835C179.263 16.4377 179.774 16.2606 180.399 16.0522C181.024 15.8439 181.461 15.6877 181.711 15.5835C181.899 15.521 181.993 15.3647 181.993 15.1147V12.771C181.993 12.1043 181.784 11.5939 181.368 11.2397C180.951 10.8647 180.451 10.6772 179.868 10.6772C179.243 10.6772 178.722 10.896 178.305 11.3335C177.888 11.7502 177.68 12.3022 177.68 12.9897C177.68 13.7189 177.253 14.0835 176.399 14.0835C175.816 14.0835 175.409 13.8856 175.18 13.4897C175.18 12.5939 175.836 11.7085 177.149 10.8335C178.461 9.93766 179.795 9.48975 181.149 9.48975ZM193.024 9.4585C193.482 9.4585 194.055 9.521 194.743 9.646C195.451 9.75016 195.941 9.82308 196.211 9.86475C196.42 10.8231 196.545 11.8856 196.586 13.0522C196.586 13.1564 196.451 13.2085 196.18 13.2085C195.888 13.2085 195.732 13.1356 195.711 12.9897C195.607 12.4064 195.305 11.8543 194.805 11.3335C194.326 10.8127 193.774 10.5522 193.149 10.5522C191.649 10.5522 190.899 11.1668 190.899 12.396C190.899 12.7085 190.941 12.9897 191.024 13.2397C191.107 13.4689 191.263 13.6981 191.493 13.9272C191.743 14.1356 191.93 14.2918 192.055 14.396C192.18 14.4793 192.451 14.646 192.868 14.896C193.305 15.1252 193.576 15.271 193.68 15.3335C193.763 15.3752 194.003 15.521 194.399 15.771C194.816 16.0002 195.107 16.1668 195.274 16.271C195.441 16.3752 195.68 16.5522 195.993 16.8022C196.326 17.0522 196.566 17.2814 196.711 17.4897C196.857 17.6772 196.993 17.9272 197.118 18.2397C197.263 18.5314 197.336 18.8335 197.336 19.146C197.336 20.3752 196.857 21.4064 195.899 22.2397C194.941 23.0522 193.816 23.4585 192.524 23.4585C192.086 23.4585 191.68 23.4272 191.305 23.3647C190.951 23.3231 190.524 23.2397 190.024 23.1147C189.524 22.9897 189.138 22.9064 188.868 22.8647C188.743 22.5314 188.618 22.0106 188.493 21.3022C188.388 20.5939 188.336 20.0314 188.336 19.6147C188.503 19.4897 188.628 19.4272 188.711 19.4272C189.024 19.4272 189.191 19.4897 189.211 19.6147C189.336 20.2397 189.722 20.8543 190.368 21.4585C191.034 22.0418 191.753 22.3335 192.524 22.3335C193.191 22.3335 193.732 22.1564 194.149 21.8022C194.586 21.4272 194.805 20.896 194.805 20.2085C194.805 19.8543 194.732 19.5314 194.586 19.2397C194.461 18.9272 194.243 18.6564 193.93 18.4272C193.638 18.1772 193.357 17.9793 193.086 17.8335C192.836 17.6668 192.472 17.4585 191.993 17.2085C191.513 16.9585 191.159 16.7606 190.93 16.6147C189.305 15.6772 188.493 14.5627 188.493 13.271C188.493 12.146 188.941 11.2293 189.836 10.521C190.753 9.81266 191.816 9.4585 193.024 9.4585Z" fill="#333333"/>
</svg>
