<svg width="33" height="34" viewBox="0 0 33 34" fill="none" xmlns="http://www.w3.org/2000/svg">
<path d="M9.40741 8.28199C9.06548 8.31045 8.81136 8.61071 8.83982 8.95265L10.6379 30.5534C10.6664 30.8953 10.9667 31.1494 11.3086 31.121L11.8973 31.072C12.2392 31.0435 12.4933 30.7432 12.4649 30.4013L10.6668 8.80056C10.6383 8.45863 10.338 8.20452 9.99611 8.23298L9.40741 8.28199Z" fill="#333333"/>
<path d="M15.4608 8.83921C15.4608 8.4961 15.7389 8.21795 16.082 8.21795H16.6728C17.0159 8.21795 17.294 8.4961 17.294 8.83921V30.5147C17.294 30.8578 17.0159 31.1359 16.6728 31.1359H16.082C15.7389 31.1359 15.4608 30.8578 15.4608 30.5147V8.83921Z" fill="#333333"/>
<path d="M23.3473 8.28199C23.6892 8.31045 23.9434 8.61071 23.9149 8.95265L22.1168 30.5534C22.0883 30.8953 21.7881 31.1494 21.4461 31.121L20.8574 31.072C20.5155 31.0435 20.2614 30.7432 20.2899 30.4013L22.088 8.80056C22.1164 8.45863 22.4167 8.20452 22.7586 8.23298L23.3473 8.28199Z" fill="#333333"/>
<path fill-rule="evenodd" clip-rule="evenodd" d="M11.6689 2.11696C11.6689 1.08762 12.5033 0.253174 13.5327 0.253174H18.0615C19.0908 0.253174 19.9253 1.08762 19.9253 2.11696V2.74808H30.6715C31.7008 2.74808 32.5353 3.58253 32.5353 4.61187V5.46391C32.5353 6.49325 31.7008 7.32769 30.6715 7.32769H30.1419L27.7577 33.028C27.7281 33.3475 27.46 33.5919 27.1391 33.5919H5.61447C5.29358 33.5919 5.02549 33.3475 4.99586 33.028L2.61256 7.32769H2.08302C1.05368 7.32769 0.219238 6.49325 0.219238 5.46391V4.61187C0.219238 3.58253 1.05368 2.74808 2.08302 2.74808H11.6689V2.11696ZM13.5327 1.4957H18.0615C18.4046 1.4957 18.6828 1.77385 18.6828 2.11696V2.57157H12.9114V2.11696C12.9114 1.77385 13.1896 1.4957 13.5327 1.4957ZM30.6715 4.30124H2.08302C1.91147 4.30124 1.77239 4.44031 1.77239 4.61187V5.46391C1.77239 5.63546 1.91147 5.77454 2.08302 5.77454H3.02402C3.0643 5.76634 3.10606 5.76202 3.14891 5.76202H29.6056C29.6484 5.76202 29.6902 5.76634 29.7305 5.77454H30.6715C30.843 5.77454 30.9821 5.63546 30.9821 5.46391V4.61187C30.9821 4.44031 30.843 4.30124 30.6715 4.30124ZM6.46394 32.0387L4.17238 7.32769H28.5821L26.2897 32.0387H6.46394Z" fill="#333333"/>
</svg>
