<svg width="32" height="34" viewBox="0 0 32 34" fill="none" xmlns="http://www.w3.org/2000/svg">
<g clip-path="url(#clip0)">
<path d="M32 0.825195H0V33.8252H32V0.825195Z" fill="#1BD741"/>
<path d="M4.80933 28.8781L6.37678 23.137C5.36881 21.3711 4.83811 19.3619 4.83811 17.2979C4.83811 10.9428 9.85174 5.77246 16.0143 5.77246C22.1769 5.77246 27.1905 10.9428 27.1905 17.2979C27.1905 23.6531 22.1769 28.8234 16.0143 28.8234C14.0941 28.8234 12.2138 28.3165 10.5505 27.354L4.80933 28.8781ZM10.844 25.2572L11.1861 25.4726C12.6363 26.3857 14.3059 26.8683 16.0143 26.8683C21.1315 26.8683 25.2946 22.575 25.2946 17.2979C25.2946 12.0208 21.1315 7.72756 16.0143 7.72756C10.8971 7.72756 6.73397 12.0208 6.73397 17.2979C6.73397 19.1367 7.24073 20.9222 8.19933 22.4616L8.42971 22.8316L7.52707 26.1377L10.844 25.2572Z" fill="#F4F4F4"/>
<path d="M12.8748 11.9335L12.1496 11.8927C11.9218 11.8799 11.6984 11.9584 11.5262 12.1126C11.1746 12.4275 10.6125 13.0362 10.4398 13.8293C10.1823 15.012 10.5803 16.4603 11.6101 17.9085C12.64 19.3567 14.5592 21.6739 17.953 22.6635C19.0466 22.9824 19.9069 22.7674 20.5707 22.3295C21.0964 21.9828 21.4588 21.4261 21.5894 20.7969L21.7052 20.2392C21.742 20.0619 21.6547 19.8821 21.495 19.8062L19.0441 18.6411C18.885 18.5655 18.6963 18.6133 18.5893 18.7563L17.6271 20.0427C17.5545 20.1398 17.43 20.1784 17.3177 20.1377C16.6588 19.8989 14.4516 18.9456 13.2405 16.5398C13.188 16.4354 13.201 16.3088 13.2755 16.2198L14.1951 15.1228C14.289 15.0107 14.3128 14.8532 14.2563 14.7171L13.1998 12.1682C13.1436 12.0325 13.0175 11.9415 12.8748 11.9335Z" fill="#F4F4F4"/>
</g>
<defs>
<clipPath id="clip0">
<rect y="0.825195" width="32" height="33" rx="2" fill="white"/>
</clipPath>
</defs>
</svg>
